<?xml version="1.0" standalone="no"?>
<!DOCTYPE svg PUBLIC "-//W3C//DTD SVG 20010904//EN"
 "http://www.w3.org/TR/2001/REC-SVG-20010904/DTD/svg10.dtd">
<svg version="1.0" xmlns="http://www.w3.org/2000/svg"
 width="1325.000000pt" height="1600.000000pt" viewBox="0 0 1325.000000 1600.000000"
 preserveAspectRatio="xMidYMid meet">
<metadata>
Created by potrace 1.16, written by Peter Selinger 2001-2019
</metadata>
<g transform="translate(0.000000,1600.000000) scale(0.100000,-0.100000)"
fill="#000000" stroke="none">
<path d="M7505 15951 c-16 -4 -29 -12 -27 -19 1 -7 -8 -12 -20 -12 -14 0 -18
-3 -12 -8 15 -9 28 -52 16 -52 -5 0 -14 10 -19 23 -10 21 -11 21 -19 3 -4 -11
-2 -27 5 -38 6 -10 9 -24 6 -31 -4 -7 0 -4 8 6 18 22 27 22 27 -2 0 -31 -23
-43 -48 -25 -19 13 -24 13 -47 -2 -14 -9 -32 -14 -40 -10 -9 3 -15 0 -15 -10
0 -10 6 -14 15 -10 8 3 21 -1 29 -9 19 -19 32 -19 40 0 4 11 -2 15 -22 15 -21
0 -24 2 -12 10 13 8 47 5 59 -6 2 -2 -2 -11 -10 -21 -10 -12 -10 -15 -1 -9 7
4 26 4 43 1 l31 -7 -21 -22 c-14 -15 -18 -25 -11 -32 7 -7 6 -11 -5 -11 -8 0
-13 3 -10 5 5 5 -25 31 -37 32 -5 0 -8 -7 -8 -15 0 -8 -6 -15 -13 -15 -20 0
-51 -37 -38 -45 6 -3 11 -11 11 -17 0 -7 -4 -7 -13 0 -15 12 -58 5 -69 -12 -5
-7 -13 -4 -22 9 -26 34 -16 61 12 33 9 -9 12 -9 12 3 0 16 -19 39 -31 39 -4 0
-15 -7 -24 -16 -9 -9 -17 -15 -18 -13 -1 2 -12 22 -24 44 -24 44 -50 61 -38
26 4 -13 2 -21 -5 -21 -6 0 -8 -5 -4 -12 5 -7 2 -9 -7 -6 -8 3 -24 -1 -34 -9
-20 -15 -20 -15 1 -9 18 6 20 3 16 -24 -4 -25 -1 -29 12 -24 9 3 23 1 31 -6 8
-7 15 -9 15 -5 0 4 10 -4 21 -19 12 -15 19 -30 15 -33 -3 -4 -6 0 -6 8 0 12
-2 11 -10 -1 -8 -12 -12 -12 -18 -3 -6 10 -17 10 -42 3 -19 -6 -36 -10 -37
-10 -2 0 -3 9 -3 19 0 17 -4 18 -41 10 -23 -5 -54 -16 -69 -24 -18 -10 -31
-11 -35 -5 -3 6 -4 11 -1 11 22 5 57 18 78 30 10 5 25 9 33 9 24 0 17 29 -10
42 -20 9 -28 8 -43 -5 -10 -10 -24 -17 -30 -17 -7 0 -12 -5 -12 -10 0 -6 -11
-16 -25 -22 -20 -9 -28 -8 -43 5 -12 11 -22 13 -32 7 -8 -5 -11 -10 -6 -10 5
0 3 -7 -4 -15 -8 -10 -21 -13 -38 -8 -21 5 -24 3 -19 -11 11 -27 -54 -20 -102
11 -23 15 -41 30 -41 35 0 12 24 10 38 -4 9 -9 12 -9 12 1 0 8 7 10 20 6 11
-4 20 -2 20 4 0 6 -3 11 -7 12 -43 4 -67 18 -45 26 14 5 17 43 3 43 -5 0 -14
-7 -21 -15 -9 -11 -16 -12 -25 -5 -15 12 -25 3 -18 -16 6 -17 -23 -64 -40 -64
-23 0 -18 -48 6 -65 22 -16 22 -16 2 -31 -11 -8 -19 -18 -17 -22 2 -3 -1 -8
-7 -10 -6 -2 -11 10 -11 27 0 23 -7 35 -27 48 -16 9 -38 25 -50 36 -11 10 -29
17 -40 14 -15 -3 -14 -6 8 -15 15 -6 29 -18 32 -26 4 -9 13 -16 21 -16 18 0
49 -47 42 -65 -2 -7 -22 -18 -43 -25 -21 -7 -49 -23 -63 -35 -14 -12 -38 -26
-55 -30 -29 -7 -29 -8 -8 -17 16 -8 30 -6 52 5 17 8 39 13 50 10 14 -3 22 3
32 26 11 26 20 31 47 31 30 0 32 -2 22 -20 -6 -11 -19 -20 -29 -20 -10 0 -24
-7 -31 -15 -10 -13 -9 -15 8 -15 12 0 24 -5 28 -11 4 -8 -3 -9 -24 -4 -25 5
-33 2 -42 -15 -6 -11 -8 -24 -5 -29 3 -5 -1 -16 -9 -24 -8 -8 -12 -17 -9 -21
4 -3 -6 -6 -20 -6 -16 0 -27 6 -27 14 0 8 -8 17 -17 21 -16 6 -15 8 7 25 l25
18 -25 7 c-22 5 -145 2 -175 -5 -19 -4 -35 0 -35 10 0 15 69 24 95 12 15 -7
26 -8 30 -2 4 6 -5 14 -18 19 -30 12 -62 57 -44 65 8 3 7 8 -5 16 -9 6 -15 17
-12 25 6 15 -21 22 -28 8 -9 -22 -61 -56 -85 -58 -54 -4 -59 -6 -33 -17 23
-10 23 -11 5 -16 -11 -2 -25 -8 -31 -13 -7 -6 -28 0 -54 14 -45 24 -63 47 -36
47 9 0 21 9 28 20 9 14 24 20 49 20 33 0 36 -2 31 -25 -2 -15 0 -25 7 -25 6 0
11 6 12 13 0 6 2 20 4 29 2 9 -4 19 -12 22 -8 3 -13 15 -11 28 2 11 -3 23 -11
26 -8 3 -11 0 -7 -7 4 -6 5 -20 1 -31 -6 -19 -7 -19 -40 0 -28 16 -34 16 -39
4 -7 -19 -36 -18 -36 2 0 11 -5 14 -16 10 -9 -3 -20 -6 -25 -6 -6 0 -9 -8 -7
-17 2 -10 -7 -22 -21 -29 -13 -7 -28 -18 -32 -26 -5 -7 -9 -8 -9 -2 0 6 -11
16 -24 22 -20 9 -27 7 -40 -7 -9 -10 -13 -21 -9 -24 3 -4 -2 -15 -11 -26 -9
-10 -13 -21 -7 -22 5 -2 13 -16 16 -31 7 -27 6 -28 -24 -22 -23 5 -31 3 -31
-7 -1 -10 -5 -9 -14 4 -13 17 -15 17 -29 -4 -9 -11 -20 -18 -26 -15 -11 7 -3
37 13 48 7 5 7 8 -2 8 -8 0 -12 9 -10 20 3 21 -5 23 -39 7 -16 -7 -20 -14 -13
-22 15 -18 -18 -51 -55 -59 -16 -3 -24 -3 -17 0 23 10 12 24 -19 24 -31 0 -31
-1 -26 -37 5 -27 3 -33 -5 -25 -7 7 -26 12 -44 12 -27 0 -31 -3 -27 -19 5 -20
-18 -42 -25 -23 -5 17 -22 15 -22 -3 0 -8 -7 -15 -15 -15 -9 0 -15 9 -15 23
-1 21 -1 21 -23 -5 -25 -31 -47 -36 -47 -13 0 13 -7 15 -35 9 -27 -5 -35 -3
-35 9 0 8 -7 17 -15 21 -8 3 -15 11 -15 18 0 7 12 1 25 -14 25 -29 45 -36 45
-16 0 6 7 19 16 29 14 16 14 18 -6 24 -15 5 -20 13 -17 26 3 11 0 19 -8 19
-16 0 -27 -27 -15 -35 15 -9 12 -25 -5 -25 -8 0 -15 7 -15 16 0 10 -4 12 -12
7 -7 -4 -21 -6 -30 -5 -13 2 -16 -1 -12 -12 4 -10 1 -16 -7 -16 -10 0 -10 -3
-1 -12 17 -17 15 -31 -3 -24 -8 3 -15 1 -15 -4 0 -6 7 -10 15 -10 8 0 20 -10
26 -22 9 -17 9 -24 -5 -33 -9 -7 -16 -20 -16 -29 0 -9 -8 -16 -19 -16 -10 0
-32 -7 -47 -15 -16 -8 -53 -15 -81 -15 -45 0 -55 4 -69 25 -9 14 -22 25 -29
25 -7 0 -15 5 -17 12 -3 7 -10 8 -17 3 -9 -5 -12 -21 -7 -51 5 -37 2 -47 -16
-64 l-23 -21 23 -6 c27 -7 28 -18 3 -35 -10 -7 -21 -24 -24 -38 -4 -14 -4 -20
-1 -14 7 16 44 5 44 -12 0 -10 -13 -14 -46 -14 -26 0 -51 -6 -60 -14 -21 -21
-17 -27 11 -20 26 7 31 -1 15 -26 -7 -12 -12 -12 -22 -2 -18 18 -35 15 -42
-10 -6 -22 -7 -22 -20 -5 -7 9 -17 17 -22 17 -5 0 -10 16 -11 35 -1 28 2 35
17 35 24 0 41 47 27 78 -15 33 -28 27 -25 -12 2 -40 -22 -69 -48 -59 -15 6
-14 2 4 -17 28 -30 28 -36 -4 -44 -24 -6 -25 -8 -9 -20 13 -9 15 -15 6 -20
-13 -9 -69 46 -63 62 5 16 -17 25 -45 17 -24 -6 -25 -7 -7 -21 18 -14 17 -15
-9 -9 -33 7 -59 -9 -50 -31 3 -8 -1 -28 -8 -46 -12 -29 -13 -29 -20 -9 -9 24
-39 29 -39 7 0 -17 -5 -21 -43 -30 -23 -6 -30 -3 -34 13 -3 11 -11 22 -19 25
-17 7 -18 -6 -2 -22 9 -9 3 -12 -29 -12 -48 0 -67 17 -26 23 20 3 16 4 -14 6
-23 0 -45 -4 -48 -9 -4 -6 -1 -9 6 -8 7 2 15 -5 17 -14 2 -11 -3 -18 -13 -18
-8 0 -19 -8 -22 -17 -12 -33 -33 -46 -62 -40 -38 8 -81 -12 -81 -38 0 -13 3
-16 8 -8 5 8 13 9 22 3 26 -17 53 -12 46 7 -5 13 -1 12 18 -6 14 -13 22 -29
19 -38 -3 -8 0 -19 7 -23 9 -6 7 -11 -9 -19 -24 -14 -28 -39 -6 -47 8 -4 15
-10 15 -14 0 -10 -85 -24 -128 -21 -31 2 -62 -12 -62 -29 0 -16 45 -18 78 -4
25 10 39 11 46 4 8 -8 8 -13 0 -18 -6 -4 -14 -14 -17 -22 -4 -12 -6 -11 -6 3
-1 24 -18 21 -45 -8 -25 -27 -36 -31 -36 -14 0 7 -8 17 -17 24 -14 10 -22 9
-45 -8 -15 -11 -28 -26 -28 -32 0 -7 -12 -10 -30 -7 -21 3 -32 0 -36 -12 -4
-10 -18 -16 -35 -16 -19 0 -29 -5 -29 -14 0 -8 -10 -18 -22 -22 -16 -5 -27 0
-41 17 l-18 23 6 -26 c4 -16 1 -37 -8 -55 l-15 -28 -7 27 c-7 26 -8 27 -32 11
-20 -13 -31 -14 -53 -6 -30 11 -60 1 -60 -22 0 -7 15 -19 33 -25 23 -9 27 -14
15 -17 -10 -3 -22 -21 -28 -44 -6 -21 -15 -39 -20 -39 -6 0 -10 -7 -10 -15 0
-8 -7 -15 -15 -15 -8 0 -15 6 -15 14 0 11 -5 12 -24 3 -43 -21 -43 -77 -1 -77
13 0 27 -4 30 -10 3 -5 11 -10 18 -10 8 0 8 3 -1 12 -14 14 -16 48 -2 48 5 0
12 -12 16 -27 4 -16 14 -34 22 -41 14 -10 10 -12 -22 -8 -21 3 -44 10 -52 17
-7 6 -18 8 -24 4 -7 -4 -18 2 -26 14 -23 32 -43 27 -41 -11 2 -35 7 -33 -75
-37 -10 -1 -18 -8 -18 -16 0 -17 -16 -20 -25 -5 -4 6 -11 7 -17 4 -7 -5 -5
-12 7 -20 10 -8 16 -17 12 -21 -4 -3 -15 1 -25 10 -20 18 -42 22 -42 8 0 -5
-9 -11 -21 -14 -23 -6 -17 -27 7 -27 8 0 14 -3 14 -7 0 -10 -49 -33 -71 -33
-25 0 -74 -28 -74 -42 0 -7 -11 -13 -25 -13 -18 0 -29 -9 -40 -30 -10 -20 -21
-29 -33 -27 -20 4 -21 -2 -7 -28 14 -26 -6 -70 -29 -63 -10 3 -12 2 -4 -4 16
-11 27 -59 15 -67 -5 -3 -7 -17 -4 -31 3 -20 0 -25 -17 -25 -24 0 -27 -10 -9
-28 9 -9 5 -12 -20 -12 -22 0 -32 -5 -32 -15 0 -11 7 -14 25 -9 15 4 25 2 25
-5 0 -6 -7 -11 -16 -11 -9 0 -14 -6 -11 -12 2 -7 12 -13 22 -13 27 0 28 -51 3
-102 -17 -33 -24 -40 -35 -32 -7 6 -13 18 -13 25 0 8 -6 14 -14 14 -7 0 -21
11 -30 25 -9 14 -25 25 -36 25 -17 0 -17 -2 5 -25 28 -27 32 -45 11 -45 -10 0
-14 -9 -13 -27 2 -35 15 -44 47 -38 15 3 34 -1 45 -9 18 -14 18 -15 3 -16 -10
0 -18 -4 -18 -10 0 -5 -5 -10 -11 -10 -5 0 -7 5 -4 10 3 6 -1 10 -9 10 -8 0
-17 -4 -20 -9 -3 -5 -22 -7 -42 -4 -48 7 -56 -8 -34 -68 11 -29 14 -49 8 -49
-6 0 -8 -9 -5 -20 6 -25 -26 -28 -49 -5 -14 13 -13 15 7 13 28 -4 35 28 9 42
-18 9 -104 -1 -117 -14 -9 -9 18 -36 37 -36 24 0 31 -22 15 -44 -11 -14 -17
-16 -35 -6 -12 6 -23 10 -24 8 -1 -2 -1 -24 2 -50 4 -52 22 -66 22 -18 0 33
14 43 86 65 37 11 44 11 44 -1 0 -8 -7 -14 -15 -14 -18 0 -19 -11 -3 -44 10
-23 8 -29 -12 -46 -17 -15 -20 -23 -11 -33 13 -16 5 -27 -19 -27 -13 0 -16 -6
-12 -26 5 -30 -15 -49 -35 -32 -10 8 -13 6 -13 -6 0 -9 5 -15 10 -13 6 1 17
-13 25 -30 8 -18 11 -34 7 -34 -30 -7 -72 -6 -72 1 0 4 -23 10 -50 12 -28 1
-50 1 -50 -2 0 -3 12 -13 27 -22 26 -15 26 -16 5 -22 -12 -4 -22 -12 -22 -17
0 -6 -14 -15 -31 -21 -20 -7 -27 -13 -19 -18 10 -6 9 -13 -4 -31 -22 -33 -21
-37 16 -41 l33 -3 -22 -20 c-29 -27 -22 -92 10 -97 25 -4 35 -28 12 -28 -13 0
-15 -6 -10 -30 l7 -30 -36 15 c-53 23 -85 19 -96 -9 -8 -22 -37 -46 -54 -46
-12 0 -6 28 7 33 9 4 8 8 -3 16 -12 8 -16 6 -19 -12 -1 -12 -8 -25 -15 -29 -6
-4 -11 -15 -11 -25 -1 -10 -4 -38 -9 -62 -6 -31 -11 -40 -17 -30 -13 21 -11
-28 2 -53 10 -18 9 -20 -5 -15 -22 8 -32 -17 -19 -46 14 -30 6 -47 -23 -47
-17 0 -24 6 -24 20 0 11 5 20 10 20 14 0 12 28 -2 33 -15 5 -58 -13 -58 -24 0
-4 5 -11 10 -14 6 -3 10 -1 10 5 0 6 5 8 11 4 8 -5 8 -9 -1 -14 -6 -4 -14 -26
-17 -50 -5 -32 -3 -41 6 -36 8 6 10 0 5 -18 -7 -29 0 -33 22 -11 18 17 24 18
43 6 8 -5 11 -16 7 -27 -5 -13 -10 -14 -18 -6 -8 8 -19 6 -41 -10 l-29 -21 6
21 c4 11 2 23 -4 27 -5 3 -10 19 -10 36 0 50 -17 32 -26 -28 -4 -32 -8 -64 -7
-70 0 -7 -4 -13 -11 -13 -20 0 19 -20 40 -20 12 0 24 -8 26 -18 4 -15 0 -17
-25 -14 l-30 5 6 -43 c3 -24 10 -46 15 -49 5 -3 13 -17 17 -31 12 -39 38 -94
49 -102 6 -4 5 -12 -2 -21 -15 -17 -6 -27 26 -27 19 0 23 -3 16 -17 -13 -30
-11 -108 4 -105 15 3 16 -15 0 -20 -9 -3 -9 -18 0 -60 6 -30 8 -66 6 -79 -5
-19 -3 -21 5 -9 9 12 11 12 16 -2 8 -21 -3 -41 -16 -32 -6 3 -5 -4 3 -15 11
-18 11 -23 -1 -30 -11 -7 -11 -9 0 -14 10 -4 10 -6 2 -6 -17 -1 -17 -41 0 -41
7 0 17 4 22 9 6 4 22 11 36 14 20 5 32 0 58 -27 26 -27 29 -34 17 -39 -24 -9
-19 -30 5 -24 17 5 20 2 16 -14 -3 -12 0 -19 8 -19 8 0 17 -4 20 -10 3 -5 0
-7 -8 -4 -8 3 -17 -2 -21 -11 -4 -11 -2 -14 6 -9 8 5 9 2 5 -9 -5 -13 -1 -17
15 -17 17 0 18 -2 8 -15 -11 -13 -10 -14 4 -9 9 3 16 1 16 -5 0 -6 -7 -11 -15
-11 -15 0 -21 5 -85 75 l-35 39 -3 -35 c-3 -28 2 -39 30 -62 18 -16 43 -33 56
-38 13 -5 21 -13 18 -18 -3 -5 4 -11 16 -15 22 -5 21 -6 -12 -36 -41 -37 -60
-38 -60 -5 0 14 -4 25 -10 25 -5 0 -10 -11 -10 -25 0 -16 -6 -25 -15 -25 -9 0
-15 9 -15 25 0 21 -5 25 -29 25 -19 0 -35 8 -44 21 -13 17 -19 19 -36 10 -22
-12 -29 -31 -11 -31 6 0 10 -7 10 -15 0 -8 -4 -15 -10 -15 -5 0 -10 7 -10 15
0 8 -7 15 -16 15 -14 0 -16 7 -11 40 3 22 1 40 -4 40 -5 0 -9 -18 -9 -40 0
-34 -3 -40 -20 -40 -18 0 -19 -3 -10 -20 14 -27 -7 -73 -22 -47 -5 9 -8 27 -7
39 5 51 -2 108 -12 108 -6 0 -22 -13 -36 -30 -29 -35 -43 -38 -43 -10 0 23 0
23 -36 10 -26 -10 -26 -11 -9 -30 18 -19 17 -20 -8 -20 -17 0 -27 5 -27 15 0
12 -14 15 -65 14 -55 -1 -67 -5 -76 -21 -8 -14 -8 -23 0 -31 13 -13 14 -27 2
-27 -5 0 -12 12 -16 27 -6 26 -8 27 -20 10 -9 -12 -15 -15 -20 -7 -4 6 0 19 9
29 18 20 12 31 -17 31 -14 0 -18 5 -15 18 3 10 -2 24 -9 31 -10 9 -13 24 -9
42 3 16 2 29 -3 29 -4 0 -13 15 -18 33 l-10 32 -7 -27 c-5 -18 -1 -41 13 -73
25 -56 29 -91 7 -62 -7 9 -19 17 -26 17 -10 0 -10 -3 0 -15 12 -15 7 -45 -7
-45 -4 0 -14 12 -20 27 -10 21 -10 28 -1 35 10 6 10 10 0 20 -9 9 -12 9 -12
-2 0 -11 -3 -11 -12 -2 -18 18 -28 14 -28 -11 0 -23 -17 -47 -32 -47 -13 0 -9
55 4 68 8 8 9 15 1 23 -11 11 -34 -6 -47 -33 -5 -11 -7 -11 -12 0 -3 7 -12 19
-20 26 -8 8 -14 18 -14 22 0 5 5 3 12 -4 16 -16 43 -15 58 3 7 8 8 15 3 15 -5
0 -14 18 -20 40 -9 36 -8 40 8 40 11 0 19 7 19 15 0 11 -11 15 -40 15 -28 0
-40 -4 -40 -14 0 -8 6 -16 13 -19 9 -4 9 -7 0 -18 -10 -10 -13 -10 -13 0 0 7
-5 9 -10 6 -5 -3 -10 -19 -10 -36 0 -28 -2 -29 -45 -29 l-45 0 0 40 c0 22 -4
40 -10 40 -5 0 -10 18 -10 40 0 29 -4 40 -15 40 -11 0 -15 -11 -15 -40 0 -28
4 -40 14 -40 9 0 15 -15 18 -47 5 -60 1 -73 -24 -73 -16 0 -19 5 -14 24 6 23
4 24 -37 21 -23 -1 -47 -3 -53 -4 -7 0 -14 -10 -17 -21 -3 -11 -10 -20 -16
-20 -6 0 -15 9 -21 20 -8 16 -8 20 3 20 8 0 22 9 32 20 18 19 17 20 -13 31
-38 13 -42 29 -7 29 30 0 32 11 7 33 -23 21 -32 21 -32 2 0 -11 -11 -15 -40
-15 -22 0 -40 -4 -40 -10 0 -15 -62 -12 -101 4 -32 13 -32 14 -9 21 15 5 26 3
28 -4 6 -18 82 -14 82 4 0 11 -11 15 -40 15 -22 0 -40 4 -40 9 0 5 -10 12 -22
14 -13 2 5 5 40 6 35 0 62 -3 62 -9 0 -5 18 -10 40 -10 22 0 40 5 40 10 0 6
-11 10 -24 10 -44 0 -56 10 -56 46 l0 34 -60 0 c-62 0 -75 11 -40 32 23 15 27
48 5 48 -18 0 -65 -47 -65 -65 0 -8 -4 -15 -10 -15 -5 0 -10 -9 -10 -20 0 -11
5 -20 10 -20 6 0 10 -9 10 -20 0 -11 -4 -20 -10 -20 -5 0 -10 9 -10 20 0 23
-37 28 -72 9 -25 -14 -52 8 -42 34 7 20 25 22 42 5 9 -9 12 -7 12 10 0 19 -5
22 -40 22 -33 0 -40 -3 -40 -19 0 -16 -5 -18 -40 -14 -26 4 -40 2 -40 -6 0 -6
-9 -11 -20 -11 -11 0 -20 7 -20 15 0 8 -7 15 -16 15 -13 0 -14 -3 -5 -14 9
-10 8 -16 -4 -26 -13 -11 -15 -8 -15 14 0 14 -1 29 -2 34 -2 4 17 10 42 13
l45 6 -42 1 c-36 2 -43 5 -43 22 0 17 7 20 40 20 39 0 40 1 40 35 0 31 -3 35
-25 35 -23 0 -24 -2 -15 -20 9 -17 8 -20 -14 -20 -13 0 -27 -6 -29 -12 -3 -7
-6 6 -6 30 -1 23 -5 42 -11 42 -11 0 -12 -4 -14 -50 0 -16 2 -30 7 -30 4 0 7
-7 7 -15 0 -8 -9 -15 -21 -15 -15 0 -19 5 -17 22 3 24 1 25 -62 27 -33 1 -40
5 -40 21 0 17 7 20 39 20 26 0 41 -5 45 -16 7 -18 26 -10 26 12 0 8 -8 14 -17
15 -11 0 -13 3 -5 6 14 6 16 43 2 43 -5 0 -10 9 -10 20 0 11 -4 20 -10 20 -5
0 -7 7 -4 15 4 8 12 15 20 15 8 0 14 5 14 11 0 6 -7 9 -15 5 -8 -3 -15 -1 -15
4 0 6 -7 10 -15 10 -8 0 -15 -5 -15 -11 0 -6 -9 -8 -20 -4 -16 5 -20 2 -20
-19 0 -14 -4 -26 -9 -26 -5 0 -11 -10 -13 -22 -2 -17 -10 -23 -28 -23 -23 0
-25 5 -31 55 -3 30 -6 49 -7 43 -3 -21 -22 -15 -22 6 0 11 8 22 18 24 9 3 -2
5 -25 6 -36 1 -43 4 -43 21 0 17 -7 20 -40 20 -29 0 -40 4 -40 15 0 11 -11 15
-40 15 -38 0 -40 -2 -40 -30 0 -28 2 -30 40 -30 22 0 40 -4 40 -10 0 -5 9 -10
20 -10 11 0 20 -7 20 -15 0 -8 -7 -15 -16 -15 -8 0 -22 7 -30 15 -9 8 -29 15
-45 15 l-29 0 0 -2015 0 -2014 77 3 c44 1 101 -3 131 -11 29 -8 57 -11 62 -8
5 3 65 -2 132 -11 68 -9 166 -18 218 -19 56 -2 96 -8 98 -14 2 -6 25 -11 52
-11 27 0 61 -5 77 -11 19 -7 29 -7 31 0 4 13 39 14 46 2 4 -5 0 -12 -6 -15 -7
-3 1 -5 19 -3 18 2 30 0 27 -5 -3 -4 0 -8 5 -8 6 0 11 -4 11 -8 0 -5 -29 -8
-64 -8 -52 1 -67 -3 -82 -19 -17 -18 -29 -20 -106 -17 -66 3 -88 7 -88 17 0 9
15 15 43 18 28 2 20 4 -28 5 -38 1 -87 -1 -108 -4 -35 -6 -37 -8 -37 -45 0
-35 -3 -39 -25 -39 -14 0 -34 9 -45 20 -26 26 -40 25 -40 -2 0 -23 -1 -23
-153 -22 -224 2 -203 -3 -199 44 4 37 2 40 -22 40 l-26 0 0 -89 c0 -62 4 -91
13 -94 9 -4 9 -6 0 -6 -10 -1 -13 -130 -13 -611 l0 -611 117 1 c65 1 155 8
200 16 76 13 111 11 123 -7 3 -4 2 -42 -1 -86 -65 -839 -91 -1126 -110 -1215
-6 -28 -13 -92 -14 -142 -3 -99 -30 -253 -48 -275 -9 -12 -9 -13 1 -7 6 4 12
2 12 -3 0 -6 -5 -11 -11 -11 -8 0 -10 -18 -7 -55 3 -36 0 -59 -7 -65 -8 -6
-11 -38 -10 -87 1 -43 -3 -84 -9 -92 -8 -11 -8 -13 1 -7 10 5 13 -4 13 -34 0
-35 -4 -42 -26 -50 -15 -6 -41 -8 -58 -5 -17 2 -58 7 -91 10 -33 4 -61 8 -63
10 -2 2 0 16 5 32 7 20 18 29 42 34 17 4 35 10 39 14 4 4 -3 4 -15 1 -21 -7
-23 -4 -23 31 0 35 4 41 37 57 34 16 36 19 20 31 -23 17 -22 35 3 35 17 0 20
7 20 39 0 23 5 41 13 44 6 2 -7 6 -31 8 -23 3 -42 1 -42 -3 0 -5 -4 -8 -10 -8
-5 0 -10 18 -10 40 0 22 5 40 10 40 6 0 10 -4 10 -10 0 -5 7 -10 15 -10 8 0
15 5 15 10 0 6 -7 10 -15 10 -8 0 -15 4 -15 10 0 5 -3 9 -8 7 -11 -3 -14 15
-7 59 3 22 1 51 -4 65 -9 23 -10 23 -10 2 -1 -36 -19 -36 -23 -1 -2 18 -7 32
-13 31 -7 -2 -11 -249 -12 -710 -1 -390 0 -703 2 -698 2 6 7 42 11 80 l7 70
12 -68 c12 -67 35 -114 35 -70 0 11 7 37 16 58 8 20 13 39 10 42 -3 3 4 21 14
41 11 19 22 55 26 79 5 33 11 43 25 43 17 0 19 -9 19 -102 0 -96 -13 -285 -26
-388 -3 -25 -7 -107 -9 -183 -3 -158 -6 -164 -95 -207 l-50 -25 0 -1227 0
-1228 5465 0 c4361 0 5465 3 5465 13 0 9 2 9 8 0 5 -9 43 -12 124 -11 65 1
115 5 112 10 -3 4 2 8 10 8 9 0 16 -5 16 -10 0 -7 66 -10 190 -10 125 1 190 5
190 12 0 7 4 7 13 0 9 -8 258 -11 835 -11 l822 -1 0 6877 c0 6346 -1 6878 -16
6895 -15 16 -15 18 0 24 10 4 16 18 16 39 0 29 -4 34 -27 38 l-28 4 28 2 c27
1 27 2 27 66 0 56 -2 64 -17 58 -16 -6 -16 -5 0 17 14 20 17 49 17 157 0 73
-2 133 -5 133 -3 0 -21 -7 -41 -15 -31 -13 -36 -13 -41 1 -8 21 4 29 22 14 13
-11 15 -8 15 19 0 34 2 36 31 21 17 -10 19 -7 19 28 0 39 -10 53 -57 79 -19
11 -23 10 -28 -7 -8 -26 -24 -25 -34 2 -7 20 -9 18 -15 -15 -6 -31 -11 -37
-31 -37 -20 0 -25 5 -25 24 0 13 7 29 16 36 13 12 11 15 -16 27 -18 7 -36 10
-41 7 -14 -8 -10 -50 6 -64 20 -16 19 -27 -2 -33 -31 -8 79 -6 137 3 65 9 96
-1 61 -20 -14 -7 -38 -9 -62 -5 -26 4 -39 3 -39 -4 0 -8 -6 -8 -19 0 -10 7
-26 9 -36 5 -16 -6 -17 -8 -1 -25 9 -9 13 -20 10 -24 -10 -9 -34 4 -34 19 0 8
-9 14 -20 14 -12 0 -20 -7 -20 -16 0 -9 9 -18 20 -21 11 -3 20 -11 20 -19 0
-7 12 -17 28 -20 15 -4 30 -12 35 -18 5 -8 9 -7 15 2 6 9 17 8 48 -8 l39 -19
-37 -1 c-23 0 -38 -5 -38 -12 0 -9 -3 -9 -12 0 -7 7 -23 12 -38 11 l-25 0 23
-11 c12 -6 22 -19 22 -29 0 -9 6 -19 13 -22 6 -2 9 -8 5 -12 -4 -5 -21 6 -38
23 -36 38 -40 39 -40 10 0 -17 -3 -19 -12 -10 -9 9 -9 15 0 24 21 21 13 28
-28 28 -36 0 -40 3 -40 25 0 26 -14 33 -25 14 -4 -5 0 -18 9 -28 17 -18 22
-51 8 -51 -16 0 -47 45 -44 63 2 10 -3 17 -12 17 -9 0 -16 7 -16 15 0 8 -6 16
-12 16 -7 1 -22 3 -33 4 -11 1 -28 2 -37 3 -12 1 -18 11 -18 27 0 14 -4 25 -9
25 -12 0 -51 -54 -51 -70 0 -6 -6 -10 -12 -7 -7 2 -21 0 -30 -5 -14 -7 -18 -4
-18 12 0 11 4 20 9 20 5 0 11 10 13 22 4 28 35 36 41 11 3 -12 5 -9 6 9 1 32
-8 58 -20 58 -6 0 -19 -9 -31 -20 -24 -22 -38 -26 -38 -10 0 6 -10 10 -21 10
-20 0 -21 -4 -15 -40 6 -38 5 -40 -19 -40 -15 0 -25 -6 -25 -14 0 -8 -5 -27
-11 -43 l-11 -28 -13 25 c-13 24 -14 24 -21 5 -4 -11 -19 -30 -33 -42 l-25
-22 21 -21 c24 -22 89 -28 95 -8 3 9 6 9 12 0 4 -7 2 -12 -3 -12 -6 0 -11 -11
-11 -25 0 -22 4 -25 40 -25 27 0 40 -4 40 -14 0 -16 -54 -41 -69 -31 -14 8
-14 -20 -1 -46 7 -13 8 -25 1 -37 -10 -16 -10 -16 -11 1 0 9 -7 17 -15 17 -13
0 -13 3 -3 20 17 27 0 54 -36 58 -24 3 -26 1 -26 -37 0 -23 5 -41 11 -41 5 0
7 -5 3 -11 -4 -8 -9 -7 -15 2 -7 11 -11 10 -22 -5 -15 -21 -42 -13 -33 9 3 8
-2 19 -10 25 -12 10 -14 8 -14 -14 0 -23 -3 -26 -24 -20 -14 3 -32 1 -42 -4
-16 -9 -15 -11 4 -21 16 -8 28 -9 42 -1 17 9 20 8 20 -9 0 -17 -5 -20 -28 -15
-19 4 -34 0 -45 -10 -8 -9 -22 -16 -29 -16 -8 0 -7 4 5 11 9 5 17 16 17 23 0
20 -47 59 -64 53 -22 -9 -20 -27 6 -54 18 -19 20 -26 9 -33 -24 -14 -5 -43 24
-36 17 4 31 0 45 -14 11 -11 33 -20 50 -20 28 0 30 -2 30 -40 0 -24 -5 -40
-12 -40 -6 0 -20 -8 -31 -17 -18 -17 -19 -17 -32 0 -6 9 -16 17 -21 17 -10 0
-35 72 -28 80 8 8 24 -23 24 -47 0 -20 5 -23 40 -23 38 0 40 2 40 30 0 28 -2
30 -39 30 -25 0 -41 5 -45 15 -6 17 -42 20 -51 5 -3 -5 -22 -10 -41 -10 -33 0
-34 -1 -34 -40 0 -29 -4 -40 -15 -40 -12 0 -15 14 -15 65 0 68 -6 77 -33 47
-19 -20 -24 -112 -7 -112 6 0 10 -18 10 -40 0 -29 -4 -40 -15 -40 -8 0 -15 6
-15 13 0 30 -32 117 -40 112 -14 -9 -12 -43 1 -47 9 -3 9 -9 0 -25 -14 -27 -6
-47 22 -61 l22 -10 -22 1 c-13 1 -23 5 -23 9 0 4 -9 8 -20 8 -11 0 -20 6 -20
14 0 7 -9 25 -21 40 -15 20 -20 37 -17 66 2 22 0 40 -4 40 -5 0 -8 -11 -8 -24
0 -14 -5 -28 -10 -31 -7 -4 -9 11 -6 44 4 43 1 56 -17 76 -22 25 -62 38 -62
20 0 -5 6 -9 14 -7 9 2 12 -3 9 -16 -4 -14 0 -22 13 -25 14 -4 19 -14 19 -36
0 -28 -2 -31 -19 -21 -11 5 -22 24 -26 41 -4 18 -16 34 -28 38 -35 14 -60 47
-52 70 8 26 -10 27 -62 6 -44 -19 -43 -19 -43 5 0 11 -4 20 -9 20 -5 0 -7 9
-4 20 7 26 -20 27 -44 1 -19 -19 -79 -39 -69 -23 3 6 -2 9 -12 8 -12 -1 -16 5
-14 18 3 17 2 18 -12 7 -14 -12 -17 -9 -22 18 -4 17 -10 31 -15 31 -19 0 -7
29 24 60 l32 33 -28 -7 c-15 -4 -37 -16 -49 -28 l-22 -22 -9 22 c-6 12 -16 22
-24 22 -17 0 -17 -19 1 -26 8 -3 17 -19 20 -37 3 -17 15 -41 27 -53 18 -19 19
-25 7 -63 -9 -28 -18 -41 -31 -41 -10 0 -16 4 -13 9 3 5 -11 9 -32 8 -20 -1
-48 1 -62 4 -14 4 -19 4 -12 2 6 -3 12 -8 12 -13 0 -4 9 -10 21 -13 28 -7 19
-32 -12 -32 -20 0 -25 -6 -27 -32 -2 -18 -6 -33 -8 -33 -12 0 -29 26 -29 45 0
14 -7 20 -25 21 -41 2 -43 3 -30 19 9 11 16 13 24 5 16 -16 25 -12 19 11 -4
12 0 25 8 29 25 16 4 19 -39 7 -24 -7 -39 -17 -35 -22 4 -5 1 -4 -8 3 -10 8
-14 21 -11 37 5 31 -10 33 -23 3 -6 -12 -17 -24 -25 -26 -13 -5 -13 -3 -1 12
8 9 11 19 8 22 -3 4 1 13 9 21 18 18 5 38 -31 47 -14 4 -25 14 -25 23 0 10
-16 33 -35 53 -32 33 -34 38 -20 50 8 7 33 13 55 14 27 0 40 5 40 15 0 11 -14
13 -75 8 -41 -4 -75 -4 -75 -1 0 3 8 18 18 32 10 15 22 35 25 45 5 14 3 16
-10 9 -18 -11 -93 -4 -108 9 -5 6 -3 9 7 9 16 0 28 26 21 48 -3 6 -11 12 -18
12 -7 0 -19 17 -26 38 -12 39 -40 72 -60 72 -7 0 -3 -9 10 -21 14 -13 20 -27
16 -39 -3 -10 -1 -21 5 -25 6 -4 8 -15 5 -26 -4 -11 -2 -19 4 -19 15 0 14 -47
-1 -53 -10 -4 -10 -6 0 -6 10 -1 10 -4 -2 -16 -18 -19 -30 -19 -23 -1 8 20 -4
28 -20 15 -16 -14 -17 -5 -1 21 10 15 9 22 -5 38 -22 24 -22 52 1 53 12 0 11
3 -7 10 -15 6 -21 15 -17 24 7 19 -3 47 -15 40 -4 -3 -6 -19 -2 -35 3 -19 1
-30 -6 -30 -6 0 -11 -9 -11 -20 0 -11 -4 -20 -10 -20 -14 0 -12 16 5 50 14 27
14 30 0 30 -23 0 -75 29 -75 41 0 13 -25 39 -38 39 -11 0 -25 30 -17 38 3 3
16 -5 30 -18 14 -13 28 -20 32 -15 5 4 2 10 -4 12 -19 7 -16 21 5 26 14 4 14
6 -5 12 -13 4 -20 11 -17 16 7 12 -23 11 -46 -1 -16 -8 -20 -5 -30 24 -6 18
-8 40 -4 49 3 10 1 17 -5 17 -7 0 -9 9 -5 25 4 18 1 27 -10 31 -10 4 -14 13
-11 24 4 12 -1 19 -14 23 -23 6 -50 -18 -29 -26 15 -5 -28 -52 -47 -52 -17 0
-42 -29 -37 -43 2 -6 -1 -12 -7 -12 -11 0 -15 18 -12 51 1 9 -11 30 -28 46
-16 16 -31 40 -33 53 -2 19 4 26 40 39 23 8 42 21 42 27 0 7 9 16 20 19 20 6
28 25 12 25 -8 0 -24 -12 -69 -50 -7 -6 -13 -8 -13 -4 0 3 -7 0 -16 -7 -14
-12 -16 -9 -14 21 4 56 1 90 -9 90 -5 0 -7 -17 -4 -39 6 -44 -20 -96 -44 -87
-8 3 -25 -1 -38 -10 -13 -9 -29 -13 -35 -9 -5 3 -10 1 -10 -4 0 -6 5 -11 10
-11 6 0 10 -4 10 -10 0 -5 -11 -10 -25 -10 -14 0 -25 4 -25 9 0 6 -17 11 -37
13 -33 3 -38 6 -40 30 -1 18 4 28 15 31 13 3 11 6 -10 17 -16 7 -34 9 -45 5
-10 -5 -26 -7 -35 -6 -21 3 -23 -10 -5 -28 7 -8 0 -7 -20 3 -19 9 -33 24 -33
34 1 15 2 15 15 -2 8 -11 15 -15 15 -9 0 6 -7 16 -15 23 -8 7 -13 16 -10 20 3
5 -8 11 -25 15 -16 4 -32 11 -35 16 -10 15 -35 10 -29 -6 4 -9 0 -15 -10 -15
-9 0 -25 -9 -37 -21 -23 -23 -55 -18 -45 7 3 8 2 12 -4 9 -6 -3 -10 -2 -10 4
0 5 5 13 10 16 16 10 12 26 -6 23 -10 -2 -19 3 -21 10 -3 6 3 12 12 12 9 0 14
4 11 9 -7 11 24 38 44 39 18 1 113 24 119 29 3 2 -4 11 -15 21 -14 14 -27 17
-55 12 -40 -8 -59 -17 -59 -30 0 -6 11 -5 26 0 35 14 42 12 19 -4 -32 -22 -81
-29 -96 -14 -9 9 -29 11 -59 8 -41 -5 -43 -6 -17 -13 31 -8 37 -27 8 -27 -17
0 -31 -18 -31 -41 0 -5 9 -9 20 -9 11 0 20 -5 20 -11 0 -6 -9 -9 -20 -6 -13 3
-20 0 -20 -9 0 -26 -19 -17 -59 28 -20 23 -21 26 -4 22 14 -4 19 1 21 20 1 23
-2 26 -28 26 -39 0 -60 34 -27 46 12 4 30 8 39 8 10 1 17 6 15 11 -1 6 -22 9
-47 8 -41 -2 -43 -2 -17 8 15 6 27 15 27 20 0 4 -7 6 -15 3 -17 -7 -23 5 -29
66 -3 25 -5 46 -5 48 -1 2 -6 0 -12 -4 -6 -3 -8 -16 -5 -28 3 -12 2 -34 -2
-49 -7 -26 -8 -26 -29 -12 -12 9 -25 31 -29 50 -10 53 -29 43 -30 -15 -1 -40
2 -51 18 -56 20 -6 58 -43 58 -56 0 -14 -80 -9 -81 5 0 6 -4 1 -10 -11 -5 -13
-7 -28 -3 -33 3 -5 2 -14 -1 -19 -10 -16 -35 8 -28 26 3 8 -1 14 -8 15 -8 0
-23 2 -34 4 -18 4 -34 -9 -35 -27 0 -5 9 -8 20 -8 11 0 20 -3 20 -7 0 -5 -13
-8 -30 -8 -29 0 -48 19 -30 30 19 12 10 25 -17 26 -23 1 -24 2 -6 6 12 2 24
12 26 21 4 15 5 15 6 0 1 -14 10 -18 36 -18 38 0 48 19 15 27 -11 3 -20 12
-20 19 0 19 -23 17 -46 -4 -21 -20 -54 -35 -54 -25 0 3 8 11 17 18 15 11 15
15 4 29 -11 14 -12 22 -1 44 l12 27 10 -24 c5 -14 7 -30 4 -37 -3 -8 1 -11 10
-7 7 3 14 14 14 25 0 14 5 18 15 15 8 -4 17 -2 20 3 8 12 -33 33 -47 24 -8 -5
-9 2 -5 23 7 35 0 48 -19 32 -11 -9 -15 -7 -20 6 -5 11 -9 13 -14 5 -4 -6 -7
4 -7 21 0 18 -6 37 -14 43 -9 6 -18 19 -22 29 -7 19 -34 22 -57 7 -13 -9 -13
-11 0 -19 8 -6 11 -14 6 -18 -4 -4 -14 1 -22 11 -16 23 -19 60 -4 51 13 -8 50
4 50 16 0 5 -7 9 -15 9 -8 0 -15 4 -15 9 0 5 -12 12 -26 15 -20 5 -24 10 -16
18 8 8 15 8 25 -1 12 -9 16 -8 20 3 4 9 -4 21 -19 31 -15 10 -23 22 -20 31 3
8 1 14 -4 14 -6 0 -10 -5 -10 -11 0 -7 -11 -8 -30 -4 -25 5 -37 1 -66 -24 -19
-17 -42 -31 -51 -31 -14 0 -14 -2 3 -15 22 -16 48 -20 39 -5 -8 13 3 13 18 0
7 -6 21 -17 32 -25 19 -14 19 -14 -11 -15 -19 0 -34 -6 -38 -15 -3 -9 -12 -12
-23 -8 -15 5 -15 3 2 -10 20 -15 19 -16 -8 -22 -15 -4 -27 -11 -27 -16 0 -5
-13 -9 -30 -9 -23 0 -30 -5 -30 -19 0 -29 -17 -35 -22 -8 -8 44 1 60 33 53 31
-6 50 10 23 21 -10 3 -26 15 -36 25 -16 16 -17 22 -6 36 7 9 18 20 23 24 6 5
6 8 0 8 -5 0 1 7 13 16 17 11 20 19 13 28 -7 9 -7 16 1 24 19 19 1 14 -22 -5
-11 -10 -25 -19 -30 -19 -6 -1 -15 -2 -22 -3 -9 -1 -9 -4 -1 -12 14 -14 6 -39
-13 -39 -8 0 -14 -9 -14 -20 0 -13 -5 -18 -15 -14 -8 4 -22 1 -30 -6 -9 -7
-18 -10 -22 -7 -3 4 2 9 11 13 9 3 14 10 11 14 -3 5 4 15 16 23 l21 15 -22 12
c-12 7 -19 18 -16 26 3 8 -1 14 -10 14 -8 0 -12 5 -9 10 3 6 -4 10 -18 10 -20
0 -23 -4 -19 -30 2 -16 9 -30 14 -30 16 0 4 -45 -12 -45 -29 -1 -41 -15 -30
-35 16 -30 12 -50 -10 -50 -11 0 -20 -4 -20 -10 0 -12 -69 22 -70 34 0 4 9 6
21 3 15 -4 19 -2 15 9 -6 16 3 18 24 4 13 -9 13 -11 0 -20 -11 -7 -11 -10 -2
-10 7 0 15 7 19 16 6 17 -33 64 -54 64 -7 0 -13 5 -13 10 0 13 16 13 42 -1 16
-9 23 -8 29 2 13 21 11 32 -6 25 -8 -3 -21 4 -29 16 -20 28 -42 17 -50 -26 -8
-41 -6 -39 -42 -26 l-28 11 35 22 c31 19 32 22 12 25 -14 2 -20 8 -16 18 3 8
0 15 -6 15 -11 2 -26 5 -38 9 -5 1 -11 2 -15 1 -5 0 -8 6 -8 14 0 9 -9 15 -21
15 -18 0 -19 -2 -9 -15 10 -13 9 -15 -11 -16 -63 -3 -118 -19 -114 -33 11 -30
-74 -71 -91 -44 -5 8 -1 9 10 5 14 -5 17 -3 13 8 -4 8 -1 17 5 21 7 5 5 11 -6
20 -11 8 -13 14 -7 19 8 4 8 12 1 26 -13 23 -32 26 -23 3 4 -10 0 -20 -10 -26
-10 -5 -17 -16 -17 -25 0 -14 -2 -14 -19 1 -24 22 -32 9 -15 -24 8 -14 14 -21
14 -17 0 11 40 -12 40 -23 0 -6 -7 -10 -15 -10 -8 0 -15 -4 -15 -10 0 -5 8
-10 18 -10 15 -1 15 -2 -2 -12 -15 -9 -22 -7 -35 10 -9 11 -42 28 -73 39 -62
19 -75 33 -31 30 22 -2 29 3 31 21 3 17 -2 22 -17 22 -24 0 -28 25 -6 34 32
12 13 23 -26 16 -44 -8 -89 -40 -56 -40 10 0 17 -8 17 -20 0 -15 -7 -20 -25
-20 -14 0 -25 4 -25 9 0 6 -12 16 -27 23 -36 18 -41 38 -9 38 14 0 26 3 26 8
0 16 -49 28 -99 25 -45 -2 -54 0 -58 16 -6 24 -32 36 -47 21 -15 -15 -26 -12
-21 5 16 51 16 50 25 35 8 -13 10 -12 10 3 0 9 -7 17 -15 17 -18 0 -20 36 -2
43 7 2 8 8 3 13 -5 5 -11 4 -13 -3 -7 -20 -41 -15 -53 6 -15 28 -13 31 18 31
l27 0 -24 19 c-28 21 -69 17 -50 -5 6 -7 8 -18 4 -24 -12 -19 4 -61 23 -59 30
3 43 -1 37 -10 -8 -14 -48 -9 -61 7 -7 10 -18 12 -34 7 -22 -7 -22 -8 -6 -20
11 -8 13 -15 7 -20 -6 -3 -11 -1 -11 4 0 6 -10 11 -22 12 -13 0 -17 3 -10 6 6
2 12 13 12 24 0 11 7 19 16 19 8 0 13 4 9 10 -3 5 -12 7 -20 4 -8 -3 -19 4
-26 17 -11 22 -12 22 -25 4 -13 -17 -14 -17 -19 1 -4 10 -11 27 -16 37 -14 26
-2 39 22 24 17 -10 22 -9 35 7 26 36 16 42 -51 27z m1335 -1056 c14 -17 60
-21 60 -5 0 7 6 7 20 0 26 -14 70 -58 70 -70 0 -6 11 -10 24 -10 14 0 28 -5
31 -10 4 -6 11 -8 16 -5 5 4 17 1 26 -4 16 -9 14 -10 -9 -11 -15 0 -30 -4 -33
-10 -3 -5 -1 -10 4 -10 21 0 11 -20 -15 -32 -20 -10 -27 -9 -34 2 -5 8 -7 18
-4 22 5 8 -33 67 -51 80 -15 12 -27 9 -23 -4 7 -21 -23 -48 -43 -37 -28 14
-69 11 -69 -6 0 -8 -7 -15 -15 -15 -21 0 -19 9 8 31 13 10 17 18 9 19 -7 0
-10 5 -6 11 4 6 20 8 40 4 28 -5 33 -3 28 10 -7 18 -53 32 -63 18 -3 -5 -14
-13 -25 -16 -11 -4 -16 -13 -12 -22 4 -11 -2 -15 -19 -15 -30 0 -33 20 -5 27
10 3 22 14 25 24 4 10 11 19 16 19 6 0 8 4 5 9 -4 5 0 12 6 14 21 9 25 8 38
-8z m-1868 -3986 c2 -21 10 -34 24 -39 15 -6 21 -4 21 6 0 8 -7 14 -14 14 -8
0 -13 6 -10 13 2 7 23 12 53 13 27 1 57 5 67 9 20 8 24 -14 5 -33 -9 -9 -8
-12 4 -12 9 0 18 7 22 15 6 17 56 21 56 5 0 -5 6 -10 14 -10 8 0 16 -7 19 -14
4 -11 16 -13 40 -9 20 3 37 1 41 -6 5 -8 13 -8 29 1 30 16 55 17 61 2 5 -13
46 -8 46 6 0 4 11 10 25 12 14 3 25 2 25 -2 0 -4 12 -11 28 -15 15 -3 35 -13
44 -22 13 -12 26 -13 60 -6 49 11 89 4 96 -16 4 -11 -2 -12 -24 -7 -29 7 -29
7 -6 -9 12 -9 22 -23 22 -31 0 -16 21 -19 36 -5 14 13 74 1 68 -14 -3 -7 2
-15 11 -18 12 -5 14 -1 9 18 -5 22 -3 25 19 25 14 0 32 3 41 6 14 5 14 8 1 21
-19 18 -9 36 15 28 10 -3 30 0 45 7 21 9 28 9 34 -1 10 -16 58 -41 79 -41 15
0 15 1 1 16 -9 8 -23 16 -31 18 -8 1 -23 9 -32 19 -10 9 -22 17 -27 17 -5 0
-9 4 -9 9 0 13 48 10 54 -4 2 -7 17 -15 33 -18 15 -3 36 -9 46 -12 13 -6 17
-2 17 14 0 12 -4 21 -10 21 -5 0 -10 7 -10 15 0 8 5 15 10 15 6 0 10 -4 10
-10 0 -5 9 -10 20 -10 13 0 22 -9 26 -25 3 -14 10 -25 15 -25 6 0 19 -16 30
-35 12 -19 26 -35 32 -34 8 0 8 2 0 6 -7 2 -13 12 -13 20 0 11 7 14 25 9 14
-4 25 -2 25 4 0 5 -8 10 -18 10 -21 0 -42 18 -42 37 0 21 54 15 73 -7 10 -12
15 -25 12 -30 -4 -6 3 -10 14 -10 14 0 21 -6 21 -20 0 -21 15 -27 25 -10 9 14
38 12 70 -4 22 -11 32 -12 47 -3 16 10 23 7 47 -21 22 -25 30 -29 35 -17 7 19
59 14 84 -8 23 -21 32 -21 32 -2 0 8 6 15 13 15 19 0 36 -20 30 -36 -3 -8 0
-14 6 -14 6 0 11 7 11 15 0 8 4 15 8 15 15 0 30 -22 25 -36 -3 -8 1 -14 11
-14 10 0 13 6 10 15 -4 9 0 15 9 15 17 0 40 -24 30 -33 -3 -4 7 -7 24 -7 18 0
33 -6 37 -15 3 -8 10 -15 16 -15 6 0 8 5 5 10 -3 6 3 10 15 10 24 0 39 -28 20
-40 -7 -4 -9 -13 -6 -19 12 -19 24 -12 31 19 9 40 28 38 43 -4 7 -19 22 -38
33 -41 10 -4 27 -23 36 -43 14 -32 17 -34 20 -15 5 25 24 35 44 22 12 -8 11
-12 -5 -24 -19 -14 -19 -15 7 -15 15 0 26 -3 25 -7 -2 -5 2 -9 7 -11 6 -2 14
-10 18 -18 4 -8 16 -14 25 -14 10 0 33 -13 52 -30 40 -33 55 -38 45 -12 -5 13
-3 14 6 5 9 -9 8 -17 -5 -34 -20 -29 -20 -40 -1 -33 22 9 66 -23 59 -41 -4
-10 0 -15 10 -15 10 0 16 7 14 17 -2 10 5 19 15 21 16 3 17 1 7 -18 -18 -33
-5 -70 25 -70 13 0 27 -5 30 -10 4 -6 15 -8 26 -5 10 4 19 2 19 -3 0 -6 -5
-12 -10 -14 -7 -2 -6 -13 2 -30 10 -21 20 -28 41 -28 15 0 27 -4 27 -10 0 -5
-4 -10 -10 -10 -5 0 -10 -13 -10 -30 0 -16 4 -30 9 -30 5 0 11 -10 14 -22 5
-18 8 -19 21 -8 14 10 16 9 16 -8 0 -12 10 -28 22 -36 21 -15 23 -15 30 4 9
24 21 25 42 4 9 -8 16 -11 16 -5 0 26 27 7 42 -30 14 -33 22 -40 37 -36 16 4
20 0 18 -16 -1 -16 4 -23 19 -25 16 -2 20 -8 17 -23 -4 -13 0 -19 10 -19 9 0
21 -8 26 -17 16 -27 13 -9 -3 23 -15 28 -13 44 6 44 5 0 7 -7 4 -16 -8 -21 20
-54 46 -54 13 0 18 -7 18 -25 0 -29 -17 -33 -36 -7 -9 11 -13 13 -14 4 0 -16
24 -42 39 -42 5 0 14 7 19 15 7 14 11 13 27 -5 10 -11 24 -20 32 -20 8 0 19
-13 24 -30 6 -16 17 -30 24 -30 18 0 45 -39 45 -63 0 -14 -5 -17 -16 -13 -14
5 -15 4 -4 -9 7 -8 18 -15 25 -15 15 0 37 -48 29 -62 -4 -6 -2 -8 4 -4 16 10
26 -13 12 -29 -9 -10 -7 -21 5 -45 9 -17 14 -38 13 -47 -2 -9 3 -18 10 -20 8
-3 12 6 12 26 0 34 11 39 30 16 7 -9 10 -25 6 -41 -4 -16 -2 -32 6 -42 11 -12
11 -16 0 -20 -11 -3 -10 -7 2 -21 19 -21 23 -36 12 -38 -12 -2 -26 -25 -26
-42 0 -8 7 -11 20 -8 17 4 18 2 10 -14 -8 -14 -6 -26 7 -46 17 -26 17 -26 -6
-20 -22 5 -22 5 -6 -13 9 -10 14 -24 10 -31 -4 -6 -2 -36 6 -66 10 -43 10 -59
1 -74 -7 -10 -8 -19 -4 -19 16 0 34 -52 22 -64 -13 -13 -13 -46 0 -46 6 0 10
-9 10 -20 0 -13 -5 -18 -15 -14 -11 5 -15 -1 -15 -24 0 -17 -3 -37 -6 -45 -4
-11 2 -16 22 -19 21 -2 30 -10 35 -31 9 -32 2 -60 -12 -51 -5 3 -9 14 -9 25 0
10 -4 19 -10 19 -5 0 -10 6 -10 14 0 8 -9 18 -21 21 -28 9 -35 -1 -10 -15 14
-7 21 -21 21 -39 0 -31 -21 -45 -52 -35 -16 5 -18 1 -15 -22 4 -28 27 -47 27
-22 0 10 3 9 10 -2 9 -13 10 -13 10 0 1 11 4 10 15 -4 23 -31 18 -45 -25 -63
-30 -13 -40 -23 -40 -40 0 -13 4 -23 10 -23 11 0 30 -64 30 -100 0 -14 -9 -36
-19 -49 -10 -13 -16 -32 -14 -42 3 -11 0 -19 -6 -19 -7 0 -9 5 -6 10 4 6 1 17
-5 25 -10 11 -17 12 -34 3 -11 -6 -24 -16 -28 -22 -5 -8 -8 -7 -8 2 0 6 -9 12
-20 12 -29 0 -25 -12 11 -33 25 -14 29 -20 20 -31 -9 -11 -9 -15 1 -20 7 -3 2
-3 -10 0 -16 4 -31 -1 -47 -16 -18 -17 -30 -20 -54 -15 -18 4 -31 3 -31 -3 0
-11 59 -22 65 -12 2 4 18 5 35 2 16 -2 30 0 30 6 0 5 11 13 25 16 16 4 25 13
25 26 0 22 7 25 29 11 12 -8 13 -15 4 -33 -6 -14 -7 -31 -2 -40 9 -16 1 -88
-10 -88 -4 0 -16 6 -26 14 -11 8 -25 12 -31 9 -7 -2 -14 1 -17 9 -2 7 -2 3 0
-9 2 -13 -1 -23 -7 -23 -5 0 -10 4 -10 8 0 5 -12 15 -27 23 -16 8 -33 20 -39
28 -13 16 -49 7 -39 -10 4 -6 13 -8 21 -5 7 3 26 -8 41 -24 15 -17 34 -30 40
-30 7 0 13 -4 13 -10 0 -5 6 -10 14 -10 9 0 12 -8 8 -25 -2 -14 -8 -25 -13
-25 -5 0 -9 -9 -9 -21 0 -12 4 -18 11 -13 7 4 4 -7 -6 -24 -18 -30 -42 -34
-31 -5 4 8 -4 23 -16 34 l-23 18 24 1 c13 0 21 3 18 7 -4 3 1 15 10 26 17 19
17 19 -3 13 -13 -4 -27 0 -39 12 -24 22 -71 17 -78 -8 -3 -11 -13 -17 -28 -15
-13 1 -30 3 -36 4 -7 0 -13 7 -13 15 0 23 -40 31 -58 12 -15 -15 -14 -16 8
-16 30 0 44 -9 53 -33 6 -15 10 -16 26 -5 23 14 33 8 36 -25 3 -20 -1 -23 -26
-19 -15 2 -34 10 -40 18 -9 11 -15 11 -25 3 -19 -15 -18 -33 1 -25 9 3 18 -1
21 -8 3 -8 18 -16 35 -20 17 -3 29 -12 29 -21 0 -19 8 -19 53 0 48 20 51 19
25 -10 -12 -14 -26 -25 -32 -25 -6 0 -17 -9 -24 -20 -10 -17 -10 -20 3 -20 9
0 18 7 21 15 7 18 34 20 34 2 0 -7 -5 -18 -11 -24 -13 -13 -4 -47 10 -38 5 3
13 0 17 -6 3 -6 0 -15 -7 -20 -20 -13 -29 -11 -29 6 0 8 -4 15 -10 15 -16 0
-12 -18 11 -44 12 -14 28 -22 35 -19 24 9 15 -14 -11 -31 -33 -21 -33 -40 0
-32 29 7 36 -17 9 -28 -12 -5 -15 -14 -11 -35 3 -15 3 -38 0 -49 -5 -20 -7
-20 -34 -7 -33 17 -73 20 -64 5 4 -6 1 -17 -5 -25 -10 -12 -10 -15 1 -16 8 -1
21 -2 29 -3 16 -1 15 -46 -1 -57 -5 -3 -1 -13 9 -23 16 -13 25 -15 47 -6 15 6
36 8 45 5 10 -3 21 -1 25 5 13 21 24 9 13 -15 -8 -19 -16 -24 -31 -19 -14 4
-18 2 -15 -7 3 -8 14 -15 25 -17 27 -4 19 -42 -8 -42 -11 0 -19 -4 -19 -10 0
-5 10 -10 23 -10 21 -1 21 -1 -6 -18 -28 -17 -31 -32 -7 -40 9 -3 11 1 7 12
-4 9 -3 16 2 16 9 0 34 -54 31 -67 0 -4 9 -10 22 -13 36 -9 31 -44 -7 -46 -16
0 -50 -2 -74 -2 -34 -2 -42 -5 -33 -14 12 -12 49 -14 96 -5 42 9 51 -2 21 -25
-28 -22 -24 -42 6 -33 23 8 24 -1 3 -23 -15 -14 -15 -17 0 -27 9 -7 16 -19 16
-26 0 -8 7 -25 16 -38 11 -16 13 -26 6 -33 -6 -6 -8 -17 -5 -25 3 -8 0 -19 -8
-24 -12 -8 -12 -11 1 -19 13 -8 12 -10 -4 -10 -17 0 -17 -1 -2 -25 9 -13 16
-34 16 -46 0 -12 8 -28 18 -35 15 -11 14 -12 -9 -10 -14 2 -34 -3 -44 -11 -18
-12 -18 -13 4 -13 20 0 22 -4 17 -25 -5 -19 -3 -25 11 -25 13 0 14 -3 6 -11
-7 -7 -36 -13 -65 -14 -78 -4 -78 -4 -78 -14 0 -5 8 -7 19 -4 10 3 22 -1 27
-8 13 -22 12 -49 -3 -49 -8 0 -11 -5 -7 -11 4 -8 9 -8 17 0 18 18 51 13 65
-10 16 -25 9 -37 -11 -20 -9 7 -31 9 -59 5 -34 -5 -52 -2 -71 11 -15 9 -32 13
-39 9 -21 -13 -59 -11 -54 3 10 25 -14 13 -51 -27 -27 -28 -49 -41 -78 -46
-39 -6 -39 -6 -18 10 12 9 20 23 17 31 -4 10 0 12 15 8 12 -3 21 -3 21 -1 0
11 -41 87 -50 93 -14 8 -13 -18 1 -32 8 -8 6 -18 -6 -36 -9 -15 -14 -30 -11
-35 13 -22 -77 -24 -94 -3 -3 4 -25 15 -49 26 -24 11 -62 37 -85 57 -22 21
-47 36 -54 33 -7 -2 -11 -1 -8 3 2 4 -7 13 -22 20 -15 7 -40 30 -56 52 -30 40
-56 53 -52 25 1 -8 10 -22 19 -33 23 -25 21 -36 -3 -29 -11 3 -20 3 -20 0 0
-8 44 -53 53 -53 4 0 18 -9 30 -21 12 -11 33 -25 46 -30 17 -7 21 -13 14 -20
-8 -8 -20 -6 -42 7 -22 13 -34 15 -41 8 -14 -14 -77 12 -85 34 -10 27 5 26 35
-3 20 -19 34 -25 47 -20 15 6 16 8 3 14 -33 13 -100 75 -100 92 0 12 -6 16
-19 12 -12 -3 -20 2 -24 16 -3 12 -11 21 -19 21 -10 0 -10 -2 2 -10 8 -5 11
-12 7 -16 -4 -4 -15 0 -25 9 -24 22 -92 20 -92 -2 0 -12 -2 -13 -12 -2 -10 11
-10 14 0 18 17 7 15 30 -4 41 -23 13 -63 -8 -61 -31 1 -10 10 -23 19 -28 10
-6 16 -15 12 -20 -3 -6 2 -16 12 -24 11 -7 15 -17 10 -22 -4 -4 -13 1 -20 11
-6 10 -23 30 -38 44 -15 14 -25 29 -22 33 3 5 -2 6 -11 3 -8 -4 -26 1 -40 10
-32 21 -38 20 -30 -3 5 -16 -1 -20 -39 -25 -30 -5 -52 -3 -66 6 -17 11 -22 11
-29 -1 -6 -8 -11 -9 -15 -3 -3 6 -14 10 -24 10 -9 0 -26 3 -37 7 -16 7 -18 6
-7 -6 16 -18 15 -29 -3 -29 -8 0 -15 9 -15 19 0 14 -5 18 -20 14 -14 -4 -22 1
-29 20 -6 14 -19 28 -29 31 -23 8 -72 -9 -72 -24 0 -16 -98 -4 -127 16 -13 8
-21 19 -18 24 4 6 1 10 -4 10 -6 0 -11 -5 -11 -10 0 -12 -87 -5 -126 10 -17 7
-23 7 -19 0 3 -6 -5 -10 -18 -10 -14 0 -28 8 -32 18 -6 15 -8 14 -16 -7 -9
-23 -10 -23 -29 -6 -19 17 -26 11 -21 -18 1 -5 -8 -5 -20 -2 -15 5 -19 4 -15
-4 8 -12 6 -13 -46 -16 -21 -1 -38 2 -38 6 0 5 5 9 11 9 5 0 7 5 4 10 -4 6
-10 8 -15 5 -5 -3 -12 0 -15 6 -4 5 -14 8 -22 5 -11 -5 -64 17 -103 42 -2 2 2
7 10 12 18 11 8 23 -13 14 -9 -3 -13 -12 -11 -19 3 -7 -4 -18 -15 -24 -25 -14
-27 -14 -43 2 -7 6 -30 21 -51 31 -35 18 -42 30 -39 68 1 12 -9 18 -36 23 -31
5 -38 10 -38 27 1 17 -7 24 -34 31 -67 16 -100 9 -100 -24 0 -10 -4 -19 -9
-19 -5 0 -12 -15 -16 -32 -4 -18 -9 -27 -12 -20 -3 7 -16 17 -29 22 -30 12
-31 30 -1 30 21 1 21 1 3 11 -13 8 -20 8 -26 -1 -5 -9 -16 -8 -45 4 -46 20
-49 20 -42 1 4 -8 2 -17 -3 -20 -6 -4 -10 3 -10 15 0 12 -4 19 -10 15 -13 -8
9 -55 27 -55 7 0 13 -4 13 -10 0 -5 -4 -10 -10 -10 -5 0 -10 -8 -11 -17 0 -14
-2 -15 -6 -3 -8 18 -35 40 -44 34 -4 -2 -5 -13 -2 -24 6 -24 -24 -29 -33 -5
-4 10 -13 13 -26 9 -13 -4 -26 2 -41 18 -19 20 -25 22 -46 12 -13 -7 -27 -18
-32 -26 -7 -11 -11 -10 -25 3 -15 16 -15 17 5 24 21 6 29 25 11 25 -5 0 -10 7
-10 16 0 8 -5 12 -11 9 -6 -4 -8 -13 -5 -21 3 -9 -2 -14 -14 -14 -22 0 -26
-10 -9 -27 14 -14 2 -36 -13 -27 -8 5 -9 1 -5 -10 7 -19 -3 -18 -65 0 -12 4
-18 0 -18 -10 0 -21 -17 -20 -28 0 -10 17 -73 44 -105 44 -16 0 -16 -2 -2 -24
10 -14 12 -27 6 -30 -5 -3 -7 -15 -4 -25 5 -22 -15 -32 -87 -42 -33 -5 -51 1
-48 17 2 10 -3 19 -9 21 -7 3 -13 0 -13 -6 0 -6 -7 -11 -15 -11 -8 0 -15 6
-15 14 0 15 -21 26 -52 26 -10 0 -26 6 -33 14 -12 12 -12 15 0 20 13 5 12 9
-4 25 -21 21 -60 18 -74 -6 -13 -22 -35 -15 -63 22 -27 36 -44 38 -44 3 0 -11
8 -22 20 -25 11 -3 20 -9 20 -14 0 -16 -25 -9 -43 11 -9 11 -26 20 -37 20 -11
0 -20 7 -20 15 0 8 -9 15 -20 15 -14 0 -20 -7 -20 -24 0 -22 -2 -23 -25 -13
-25 12 -35 39 -12 34 7 -1 12 9 12 28 0 30 0 30 -58 30 -32 0 -61 5 -65 10 -4
6 -16 10 -27 10 -11 0 -24 10 -30 22 -8 16 -15 19 -22 12 -14 -14 -32 -3 -43
27 -5 13 -16 24 -24 24 -10 0 -13 6 -9 17 5 12 2 15 -9 11 -9 -4 -21 -1 -27 5
-13 13 -30 15 -124 17 -62 2 -80 17 -57 45 20 24 -31 39 -67 20 -33 -18 -100
-21 -70 -4 30 17 20 32 -18 26 -19 -3 -35 -2 -35 4 0 5 6 9 13 10 6 0 2 5 -11
11 -30 15 -52 -3 -32 -27 17 -21 -7 -21 -37 0 -22 16 -22 42 1 57 8 5 7 8 -1
8 -6 0 -15 -4 -18 -10 -3 -5 -19 -10 -35 -10 -22 0 -28 4 -24 15 5 12 -2 15
-29 15 -40 0 -58 16 -31 27 16 6 16 7 -2 13 -15 6 -138 5 -171 -1 -4 -1 -25
-1 -46 0 l-37 1 16 25 c12 18 24 25 42 23 14 -2 27 2 29 8 5 14 -80 25 -85 12
-5 -12 -52 -10 -52 2 0 6 -8 10 -17 8 -13 -2 -18 3 -17 20 1 20 -3 22 -30 16
-17 -3 -36 -12 -43 -21 -9 -12 -13 -11 -26 7 -12 18 -21 21 -46 15 -27 -6 -31
-4 -31 14 0 11 5 23 10 26 18 11 11 23 -10 18 -11 -3 -20 -1 -20 4 0 5 -17 10
-37 10 -91 4 -117 14 -108 43 8 24 -15 31 -105 33 -39 1 -70 5 -70 10 0 4 4 7
8 7 5 0 17 7 28 16 18 14 17 15 -13 11 -18 -2 -30 0 -28 3 3 4 -4 15 -15 25
-19 17 -20 17 -20 0 0 -28 -30 -55 -59 -54 -26 0 -26 0 -3 9 48 20 10 51 -62
50 -19 -1 -18 -2 7 -16 33 -18 28 -30 -14 -39 -24 -5 -36 -2 -53 14 -24 22
-46 28 -46 11 0 -5 5 -10 10 -10 6 0 10 -7 10 -15 0 -19 -30 -19 -56 0 -10 8
-28 15 -38 15 -19 0 -19 0 0 -22 19 -21 19 -21 -5 -15 -18 4 -24 1 -28 -14 -4
-16 -8 -17 -20 -7 -11 9 -19 9 -35 -1 -17 -11 -19 -10 -16 6 2 10 13 19 25 21
12 2 24 10 27 19 9 22 0 28 -18 14 -16 -13 -66 -5 -66 11 0 6 -11 8 -25 6 -30
-6 -42 7 -25 27 9 11 8 18 -4 31 -22 21 -14 28 30 26 22 -1 46 6 61 17 22 18
23 20 4 26 -36 11 -34 42 3 36 4 -1 20 6 34 15 18 12 37 15 71 10 60 -8 43 9
-29 27 -51 13 -81 37 -46 37 24 0 19 17 -9 36 -23 15 -24 18 -9 29 15 10 14
13 -8 31 -18 14 -22 22 -14 30 17 16 66 26 66 14 0 -5 -7 -10 -16 -10 -9 0
-14 -6 -11 -12 2 -7 13 -13 24 -13 12 0 25 -3 29 -7 9 -10 44 -10 44 -1 0 3
-7 14 -15 23 -14 16 -14 17 12 13 22 -4 25 -2 13 6 -11 8 -12 13 -3 22 9 9 18
8 37 -5 27 -17 56 -21 56 -8 0 4 -7 17 -15 29 -13 18 -13 23 -1 33 25 20 75
15 92 -9 9 -12 20 -19 25 -15 13 8 -9 34 -38 45 -40 15 -26 29 22 22 39 -5 45
-3 45 12 0 15 -3 15 -15 5 -13 -11 -21 -9 -45 8 -32 24 -45 28 -34 11 4 -8 -3
-9 -26 -4 -25 5 -31 4 -28 -6 3 -8 15 -15 27 -17 25 -4 23 -25 -3 -30 -24 -5
-55 25 -49 47 3 10 22 24 44 31 36 12 38 15 24 30 -8 9 -15 24 -15 33 0 9 -5
19 -10 22 -15 9 -2 25 20 25 28 0 71 -22 67 -34 -2 -6 -11 -10 -21 -8 -9 2
-16 -1 -16 -7 0 -18 12 -41 22 -41 5 0 7 4 4 9 -3 5 2 12 11 15 9 4 19 2 22
-3 9 -14 58 -24 78 -16 17 7 16 8 -2 15 -11 5 -31 6 -44 3 -21 -5 -23 -3 -18
16 3 14 1 21 -9 21 -8 0 -17 8 -21 18 -14 39 -75 66 -98 43 -6 -6 -19 -5 -34
3 -22 12 -22 13 20 19 50 7 118 -6 129 -24 9 -13 40 -5 40 10 0 5 -13 12 -30
16 -18 4 -30 13 -30 22 0 13 9 15 56 10 43 -4 59 -11 75 -31 11 -14 26 -26 32
-26 7 0 4 7 -5 14 -10 7 -18 16 -18 20 0 4 -10 18 -23 32 -19 20 -31 24 -72
22 -44 -3 -50 -1 -53 18 -3 20 0 21 67 16 38 -2 78 -1 88 2 17 7 17 8 0 17
-39 22 -191 26 -212 5 -14 -13 -75 -10 -75 5 0 14 19 20 61 21 25 0 43 6 46
15 3 7 13 13 22 12 9 -1 18 0 21 1 3 1 36 4 73 5 75 3 92 11 62 28 -11 6 -33
24 -50 40 -19 20 -40 30 -60 31 -18 1 -40 9 -50 20 -19 18 -19 18 5 11 32 -9
32 -9 52 -1 9 4 37 0 62 -8 55 -19 95 -21 55 -3 -14 7 -32 17 -40 24 -8 6 -41
20 -74 31 -43 14 -59 24 -57 35 1 8 -2 18 -8 22 -19 12 -10 23 26 29 21 4 41
3 48 -3 9 -8 22 -8 43 0 32 11 115 7 148 -6 18 -8 18 -7 6 8 -7 9 -20 17 -28
17 -8 0 -12 4 -8 9 6 11 -91 8 -102 -2 -10 -11 -55 -8 -48 2 8 14 -11 22 -55
23 -22 0 -40 5 -40 10 0 5 6 8 13 5 6 -2 22 -1 33 4 13 4 38 2 64 -7 38 -13
45 -13 58 -1 12 13 10 17 -22 28 -20 7 -36 19 -36 26 0 7 -4 13 -10 13 -5 0
-10 -4 -10 -10 0 -5 -9 -10 -20 -10 -11 0 -20 5 -20 10 0 6 4 10 9 10 15 0 41
30 41 46 0 8 -10 14 -22 14 -16 0 -19 3 -11 11 9 9 20 6 45 -11 18 -13 39 -30
46 -39 8 -10 15 -12 22 -5 18 18 1 41 -41 57 -31 12 -39 20 -39 41 0 19 -5 26
-20 26 -13 0 -20 7 -20 20 0 15 7 20 27 20 39 0 14 21 -34 29 -29 5 -38 11
-38 26 0 14 -9 21 -30 25 l-30 5 25 18 c14 10 26 13 28 7 5 -13 62 -13 62 0 0
6 -6 10 -14 10 -7 0 -16 10 -19 21 -5 19 -11 21 -51 17 -35 -4 -46 -2 -51 11
-5 13 -7 14 -16 1 -9 -13 -10 -13 -6 0 2 9 21 17 46 21 24 3 47 12 52 20 6 10
11 11 17 3 16 -24 118 -33 137 -12 7 8 6 9 -3 4 -7 -4 -21 -4 -30 0 -9 4 -27
6 -39 5 -15 -2 -23 3 -23 12 0 14 -28 27 -62 27 -11 0 -15 -6 -11 -20 3 -11 1
-20 -5 -20 -24 0 -42 13 -42 32 0 10 4 17 9 14 22 -14 40 6 34 37 -5 26 -4 29
11 24 10 -4 36 -7 58 -7 32 0 39 -3 34 -15 -9 -23 7 -18 28 10 12 16 23 22 30
17 6 -5 19 -12 28 -15 15 -5 16 -1 12 23 -5 20 -2 28 7 27 22 -3 24 16 4 28
-36 20 -56 46 -50 64 7 24 -14 71 -32 71 -8 0 -13 6 -10 13 2 6 12 11 21 11
12 -2 15 3 10 18 -5 16 -2 19 14 14 14 -5 21 -1 25 14 4 14 1 20 -8 18 -8 -2
-15 1 -16 7 -2 10 12 19 46 30 18 6 19 7 3 19 -28 21 -7 33 71 40 40 4 79 10
86 12 17 7 57 -33 79 -78 9 -21 22 -38 28 -38 6 0 19 -7 29 -16 15 -14 23 -14
56 -3 l38 12 -29 8 c-16 5 -33 6 -37 4 -9 -6 -63 45 -72 68 -5 14 -3 17 11 15
29 -5 25 16 -7 34 -17 10 -31 14 -31 10 0 -4 -4 -1 -9 7 -6 9 -4 19 4 28 15
14 45 18 45 5 0 -4 35 -7 78 -7 72 0 78 1 78 20 -1 11 -9 26 -18 33 -24 18
-23 42 2 42 15 0 20 7 20 25 0 16 6 25 15 25 18 0 19 -23 3 -50 -13 -21 -6
-36 11 -25 6 3 11 19 11 35 0 16 7 30 16 34 13 5 12 9 -6 28 -21 22 -22 22
-35 4 -8 -11 -21 -16 -30 -13 -26 11 -17 26 25 43 22 9 40 20 40 24 0 4 10 11
23 14 l22 7 -23 11 c-12 6 -21 16 -19 22 5 14 87 21 87 7 0 -6 7 -11 15 -11 8
0 15 5 15 10 0 6 -7 10 -15 10 -8 0 -15 5 -15 11 0 6 -6 9 -13 6 -10 -4 -13 2
-9 21 5 24 4 26 -12 13 -13 -11 -20 -11 -28 -3 -9 9 -8 12 3 14 23 2 51 5 89
8 l35 2 -28 11 c-30 12 -31 30 -1 36 33 6 46 22 32 38 -8 10 -9 16 -1 21 6 4
15 20 18 35 4 15 14 27 24 27 9 0 27 9 40 19 13 10 32 16 42 14 28 -8 23 6 -7
17 -34 13 -21 30 24 30 42 0 71 13 53 24 -6 4 -11 16 -11 26 0 14 10 21 35 26
19 3 35 10 35 15 0 5 11 9 25 9 23 0 25 4 25 42 0 41 0 41 21 22 20 -18 22
-18 34 -1 6 9 17 17 24 17 6 0 11 5 11 10 0 6 5 10 12 10 6 0 19 7 29 16 15
13 19 13 30 1 12 -12 22 -11 71 7 67 24 76 39 19 30 -24 -4 -41 -2 -45 5 -4 6
-1 9 7 5 8 -3 25 6 38 20 27 29 39 32 39 11 0 -25 18 -17 34 15 14 30 14 30
-12 24 -26 -6 -26 -6 -6 9 11 9 27 15 35 15 38 -2 55 4 64 24 11 23 35 37 35
19 0 -6 -7 -11 -16 -11 -12 0 -15 -7 -12 -24 6 -28 -10 -60 -19 -38 -9 22 -33
13 -33 -12 0 -15 -7 -26 -20 -29 -11 -3 -20 -10 -20 -17 0 -6 5 -8 10 -5 25
15 59 15 68 -2 8 -13 11 -11 17 16 4 18 13 35 21 38 11 4 12 9 3 19 -9 11 -8
14 5 14 9 0 16 -6 16 -14 0 -23 22 -31 35 -13 7 10 19 17 27 17 8 0 19 5 26
12 9 9 15 9 24 0 7 -7 21 -12 33 -12 20 -1 20 -1 1 -15 -11 -8 -15 -15 -9 -15
7 0 15 5 18 10 3 6 15 10 25 10 10 0 26 10 34 21 11 17 21 20 42 15 24 -6 26
-5 20 19 -7 28 8 35 18 8 6 -15 10 -13 32 11 18 19 29 24 38 17 16 -13 56 -2
56 15 0 12 4 12 20 2 18 -12 18 -13 -12 -38 -19 -16 -29 -33 -27 -44 5 -27 29
-33 29 -7 0 13 14 28 40 42 22 13 40 28 40 35 0 14 28 27 41 18 14 -9 10 -22
-8 -28 -10 -3 -23 -18 -30 -32 l-12 -26 42 7 c23 4 45 12 48 18 4 5 23 15 43
22 29 10 38 10 46 0 8 -10 6 -16 -7 -24 -10 -6 -13 -11 -6 -11 12 0 18 6 51
49 18 23 92 56 92 41 0 -4 -16 -20 -35 -34 -19 -15 -35 -32 -35 -39 0 -8 3 -9
8 -1 4 6 19 14 33 17 14 4 43 18 63 32 21 14 40 24 42 22 9 -8 -9 -37 -22 -37
-7 0 -11 -6 -8 -14 3 -9 -4 -16 -21 -20 -14 -4 -23 -11 -20 -17 4 -6 11 -6 18
-1 7 5 24 12 40 16 21 5 27 3 27 -10 0 -13 3 -14 15 -4 18 15 20 37 3 42 -6 2
-8 10 -4 17 6 9 11 9 21 1 19 -16 57 9 49 32 -3 10 -1 18 5 18 5 0 11 -14 13
-31z m-3927 -3600 c37 -11 38 -12 18 -20 -13 -5 -23 -13 -23 -19 0 -13 13 -13
28 2 8 8 15 8 27 -2 8 -7 18 -10 22 -6 4 3 -2 13 -13 21 -18 14 -18 14 8 15
15 0 30 -4 33 -10 3 -5 22 -10 41 -10 37 0 42 -11 22 -55 -6 -14 -18 -25 -26
-25 -11 0 -12 3 -3 14 9 11 9 19 -1 35 -7 12 -15 21 -18 21 -3 0 -11 -9 -18
-21 -10 -15 -10 -24 -2 -34 6 -7 7 -15 2 -17 -5 -1 -11 -24 -14 -51 -5 -39 -3
-46 8 -36 17 14 28 -10 22 -46 -4 -19 -1 -25 13 -26 11 -1 24 -2 30 -3 7 0 16
-10 20 -21 8 -19 8 -19 15 3 8 26 33 30 35 5 1 -17 2 -17 6 0 6 24 20 21 48
-10 21 -24 26 -26 35 -13 8 11 9 8 4 -12 -5 -23 -3 -28 12 -29 17 -1 17 -2 2
-6 -18 -5 -25 -23 -9 -23 5 0 4 -11 -2 -25 -7 -14 -18 -25 -24 -25 -21 0 -16
-78 7 -107 11 -14 20 -31 20 -37 0 -6 -5 -4 -10 4 -8 13 -12 13 -27 -3 -17
-18 -17 -19 5 -37 15 -12 20 -24 15 -36 -4 -10 -2 -15 4 -11 6 4 9 -8 7 -31
-2 -20 -3 -41 -3 -45 -1 -4 -11 -12 -23 -17 l-23 -9 23 -7 c12 -3 22 -12 22
-19 0 -8 3 -20 6 -29 7 -19 -27 -22 -54 -5 -15 10 -24 7 -45 -11 -32 -28 -34
-40 -7 -40 13 0 20 7 20 20 0 11 5 20 11 20 18 0 41 -30 35 -46 -5 -14 -9 -14
-22 -3 -11 9 -18 9 -22 2 -7 -10 -62 -21 -129 -25 -18 -1 -33 -7 -33 -13 0 -7
-3 -7 -8 0 -8 12 -152 15 -152 4 0 -4 8 -10 18 -12 10 -3 5 -5 -12 -6 -16 0
-26 2 -23 6 11 10 -30 34 -47 27 -9 -3 -16 -1 -16 5 0 7 -20 11 -48 11 -53 0
-88 24 -77 53 4 9 -2 21 -16 31 -22 15 -24 15 -35 -12 l-12 -27 -7 43 c-5 25
-13 42 -21 42 -8 0 -14 -6 -14 -14 0 -10 -16 -15 -52 -18 -42 -4 -56 -1 -70
14 -9 10 -26 18 -37 18 -14 0 -25 9 -31 25 -5 14 -14 25 -20 25 -14 0 -31 -44
-19 -48 11 -4 1 -22 -12 -22 -5 0 -9 11 -9 25 0 22 -4 25 -39 25 -22 0 -41 5
-44 13 -3 7 -9 0 -16 -15 -6 -16 -15 -28 -21 -28 -6 0 -15 12 -21 28 -10 24
-12 25 -18 8 -5 -14 -10 -16 -15 -7 -4 6 -2 18 4 26 10 12 5 21 -22 47 l-33
34 -87 -4 c-68 -3 -88 -7 -88 -18 0 -20 -10 -18 -37 8 -32 30 -29 38 18 38
l40 0 -3 43 c-3 41 -4 42 -35 39 -32 -3 -33 -3 -33 37 l0 41 -55 0 -55 0 0
-40 0 -40 40 0 c29 0 40 -4 40 -15 0 -11 -11 -15 -39 -15 -49 0 -52 9 -44 157
l6 113 39 0 c34 0 38 3 38 25 0 23 4 25 40 25 22 0 40 -4 40 -10 0 -5 18 -10
40 -10 29 0 40 -4 40 -15 0 -11 11 -15 40 -15 36 0 40 3 40 25 0 14 4 25 9 25
5 0 18 -11 29 -25 22 -27 59 -33 95 -14 16 9 22 9 25 0 2 -6 21 -11 43 -11 29
0 39 4 39 16 0 12 6 15 23 10 12 -3 30 -6 40 -6 14 0 17 -5 13 -22 -3 -13 -3
-17 0 -10 3 6 18 12 34 12 16 0 31 6 33 13 4 9 7 9 14 0 16 -23 86 -19 121 7
26 19 35 22 41 11 6 -10 26 -11 85 -6 71 7 76 9 76 31 0 15 6 24 16 24 14 0
14 -3 4 -16 -11 -12 -10 -18 3 -32 16 -15 18 -15 34 0 13 14 14 20 3 32 -10
13 -10 16 4 16 10 0 16 9 16 25 0 23 4 25 40 25 45 0 47 4 24 48 -19 39 -31
40 -44 7 -14 -38 -30 -30 -30 15 0 34 -4 41 -25 46 -14 3 -32 4 -40 1 -19 -8
-31 13 -14 24 20 12 127 11 174 -2z m1361 -665 c-5 -13 -2 -14 11 -9 10 5 35
9 56 11 l37 3 0 -44 c0 -24 5 -57 11 -72 27 -66 32 -79 43 -103 16 -36 135
-153 177 -172 86 -41 223 -29 309 28 41 27 125 122 143 162 9 19 17 22 51 20
36 -3 41 -7 49 -35 7 -22 18 -35 38 -42 16 -5 30 -16 31 -23 5 -46 4 -68 -4
-68 -5 0 -6 -4 -3 -10 3 -5 19 -10 34 -10 25 0 30 5 35 34 5 23 13 36 28 40
30 7 32 2 14 -31 -8 -15 -18 -36 -22 -45 -7 -21 -64 -25 -92 -7 -25 15 -132
-6 -132 -27 0 -8 -8 -14 -17 -14 -26 -1 -57 -26 -42 -35 6 -4 15 -2 19 5 6 10
24 11 71 5 35 -4 99 -8 142 -10 115 -6 207 -42 187 -74 -5 -9 -10 -10 -14 -2
-9 14 -46 15 -46 1 0 -16 -27 -12 -34 5 -6 17 -51 20 -61 5 -4 -6 -11 -7 -17
-4 -16 10 -98 14 -98 4 0 -5 6 -11 13 -14 6 -3 -4 -3 -23 0 -78 10 -253 5
-267 -9 -3 -4 -1 -7 5 -7 7 0 12 -7 12 -15 0 -22 -21 -18 -27 5 -6 23 -28 27
-37 5 -7 -20 -26 -19 -26 0 0 23 -23 28 -71 15 -35 -10 -45 -9 -53 2 -12 16
-46 20 -46 6 0 -4 -5 -8 -11 -8 -5 0 -7 5 -4 10 11 17 -5 32 -20 20 -10 -8
-16 -7 -23 6 -7 12 -18 15 -36 12 -18 -4 -29 -1 -33 8 -4 11 -9 12 -19 3 -11
-9 -14 -7 -14 11 0 19 3 21 28 15 56 -16 293 -26 350 -15 26 5 3 8 -73 9 -103
2 -201 11 -287 27 -32 6 -38 4 -38 -11 0 -11 -5 -15 -16 -11 -9 3 -20 6 -25 6
-5 0 -9 5 -9 10 0 6 9 10 21 10 29 0 15 17 -21 25 -60 13 -233 145 -215 164 4
3 13 -2 20 -13 9 -11 20 -16 31 -12 12 4 15 2 10 -9 -3 -9 0 -15 9 -15 31 0
25 24 -19 68 -25 25 -46 52 -46 58 0 6 -7 17 -15 24 -20 17 -19 29 5 38 19 7
19 8 -5 34 -14 15 -25 35 -24 45 0 16 1 16 8 -1 7 -18 8 -18 14 -3 4 10 17 17
31 17 14 0 28 5 31 10 10 16 18 12 11 -6z m6051 -234 c7 0 10 -6 7 -13 -2 -7
8 -24 23 -37 19 -16 23 -25 14 -28 -7 -2 -17 2 -22 9 -6 11 -11 11 -21 1 -9
-9 -9 -12 4 -12 14 0 16 -10 13 -66 -2 -36 -9 -71 -15 -79 -7 -8 -9 -19 -5
-25 3 -5 -1 -13 -9 -16 -8 -3 -18 -14 -21 -25 -4 -10 -13 -19 -21 -19 -11 0
-15 -9 -12 -30 3 -34 -13 -50 -43 -43 -10 3 -30 -2 -44 -11 -42 -28 -45 -22
-42 79 1 55 6 95 12 95 12 0 13 50 1 69 -7 11 -5 13 8 8 20 -8 116 21 116 35
0 5 -5 6 -11 2 -19 -12 -81 -23 -96 -17 -15 6 -11 29 14 79 14 27 18 30 30 18
8 -8 22 -14 31 -14 12 0 13 3 4 12 -7 7 -12 15 -12 19 0 10 40 18 65 13 11 -2
25 -4 32 -4z m-1832 -151 c33 -6 92 -14 132 -20 40 -5 94 -14 120 -18 29 -6
49 -6 51 0 2 5 17 9 33 9 20 0 27 -4 23 -14 -4 -9 7 -15 34 -20 21 -3 50 -14
63 -24 31 -25 125 -52 137 -40 10 10 42 0 42 -14 0 -5 -9 -12 -20 -15 -11 -3
-20 -10 -20 -15 0 -6 -7 -7 -16 -4 -8 3 -13 2 -10 -3 7 -10 -72 -5 -124 9 -19
5 -69 12 -110 15 -217 17 -458 48 -495 64 -23 10 -58 21 -79 25 -101 19 -114
48 -15 34 71 -9 88 -3 41 14 -64 25 -27 38 83 31 39 -3 97 -9 130 -14z m-1831
-20 c8 -12 12 -27 10 -34 -3 -7 5 -15 16 -18 12 -3 19 -10 16 -15 -3 -6 1 -12
9 -16 9 -3 12 -12 8 -22 -5 -14 -3 -15 15 -5 15 8 23 8 27 0 4 -6 17 -8 29 -5
17 4 25 -1 34 -22 8 -19 10 -20 6 -4 -6 25 -2 27 26 10 15 -9 22 -10 31 -1 12
12 39 7 39 -8 0 -5 -10 -14 -22 -19 -22 -8 -22 -9 5 -9 16 -1 30 5 33 14 4 8
10 12 16 9 5 -3 -2 -16 -17 -29 -31 -29 -32 -39 -4 -30 19 6 21 4 17 -13 -4
-13 0 -23 8 -26 22 -8 17 -24 -8 -28 -30 -4 -30 -22 0 -26 13 -2 28 -14 34
-27 6 -13 22 -25 39 -29 30 -6 52 -37 31 -44 -6 -2 -8 -10 -5 -18 3 -8 0 -14
-6 -14 -6 0 -11 -4 -11 -10 0 -5 7 -10 15 -10 11 0 15 -12 16 -42 1 -24 3 -35
6 -25 6 22 23 22 23 0 0 -14 4 -12 25 7 14 13 22 26 19 29 -3 3 -9 -1 -14 -9
-5 -8 -12 -11 -15 -8 -11 11 5 28 25 28 23 0 62 40 56 56 -6 17 26 28 35 12 5
-8 11 -9 21 -1 7 6 28 13 46 17 17 3 46 9 62 12 19 4 30 2 30 -5 0 -6 -8 -11
-17 -11 -13 0 -14 -3 -5 -12 16 -16 15 -28 -3 -28 -9 0 -20 -11 -25 -25 -5
-14 -16 -25 -24 -25 -10 0 -13 -6 -10 -15 4 -8 2 -15 -4 -15 -5 0 -12 -15 -15
-32 -3 -18 -8 -40 -11 -48 -3 -8 2 -24 10 -35 11 -14 18 -16 21 -7 7 19 18 15
56 -23 23 -23 41 -33 51 -29 9 3 16 1 16 -5 0 -6 5 -11 10 -11 6 0 8 11 4 25
-5 19 -2 25 10 25 9 0 16 -8 16 -19 0 -11 5 -23 12 -27 8 -5 2 -12 -17 -20
-28 -12 -28 -13 -7 -14 34 0 84 -38 77 -59 -3 -10 3 -20 18 -26 12 -6 26 -20
32 -32 5 -13 15 -23 22 -23 7 0 13 -4 13 -8 0 -4 14 -16 30 -25 17 -10 30 -24
30 -30 0 -7 35 -28 76 -47 41 -19 80 -41 86 -48 9 -11 13 -11 19 0 7 10 9 10
9 1 0 -8 13 -13 29 -13 17 0 33 -4 36 -10 8 -12 25 -13 25 -1 0 5 -11 12 -25
15 -24 6 -37 46 -15 46 6 0 10 -7 10 -16 0 -11 6 -14 20 -9 43 14 109 -21 84
-44 -4 -3 -9 0 -11 7 -6 17 -33 15 -33 -3 0 -8 7 -15 15 -15 9 0 15 -9 15 -25
0 -16 6 -25 15 -25 8 0 15 5 15 10 0 6 -4 10 -10 10 -21 0 -9 27 17 39 36 16
57 -3 28 -26 -20 -15 -20 -15 2 -10 13 3 24 -1 27 -9 5 -12 9 -13 28 -1 25 14
70 14 138 -1 25 -6 49 -7 53 -2 5 4 18 5 29 2 15 -4 17 -7 6 -14 -9 -7 -8 -8
5 -4 10 3 28 6 39 6 14 0 18 5 15 15 -7 17 9 30 18 15 4 -7 19 -8 36 -5 19 4
29 3 29 -5 0 -13 25 -7 78 17 19 8 44 12 56 9 16 -4 29 1 41 14 12 14 25 17
46 13 25 -5 29 -2 29 16 0 14 6 20 18 19 36 -3 52 2 52 17 0 10 11 15 35 15
37 0 60 25 49 54 -5 13 2 16 35 16 30 0 41 4 41 15 0 8 -6 15 -12 15 -7 0 -2
6 11 13 15 7 28 26 33 45 6 23 14 32 29 32 12 0 23 10 29 26 8 19 16 25 30 21
11 -3 20 -1 20 4 0 5 -9 9 -20 9 -11 0 -20 6 -21 13 -4 71 -3 77 9 72 8 -3 20
-5 28 -5 8 0 14 -7 14 -15 0 -8 -9 -15 -20 -15 -18 0 -19 -2 -8 -20 7 -11 16
-20 21 -20 4 0 6 4 3 9 -3 5 1 14 9 21 8 7 15 21 15 31 0 11 7 19 15 19 8 0
15 5 15 10 0 6 9 10 20 10 11 0 20 -5 20 -12 0 -6 8 -4 19 6 10 9 24 14 32 12
8 -2 27 -7 43 -11 26 -6 28 -4 16 10 -19 23 -6 29 40 17 33 -8 44 -7 63 7 30
22 59 40 77 48 8 4 18 11 21 16 4 6 19 5 39 -2 44 -15 43 -15 63 19 10 17 23
30 29 30 7 0 6 -5 -2 -15 -10 -12 -9 -16 4 -21 9 -3 23 -1 31 6 8 7 15 8 15 3
0 -6 11 -8 25 -5 14 2 25 11 25 19 0 10 -6 12 -20 8 -11 -4 -20 -2 -20 4 0 6
13 11 30 11 24 0 35 8 54 39 14 21 37 48 51 59 16 13 25 29 23 39 -4 20 47 59
71 54 10 -2 10 2 -2 20 -14 19 -14 23 0 37 14 14 16 14 25 -1 11 -21 28 -22
28 -1 0 8 7 22 15 31 14 14 15 13 9 -13 -4 -16 -16 -35 -26 -43 -17 -11 -17
-15 -5 -30 8 -9 17 -24 21 -35 5 -14 9 -16 20 -7 10 8 16 9 21 1 3 -5 -1 -10
-9 -10 -9 0 -16 -9 -16 -20 0 -24 -25 -27 -34 -4 -7 19 -67 16 -74 -5 -3 -9 1
-11 14 -7 11 3 25 1 33 -3 19 -12 26 -108 8 -114 -6 -2 -2 -2 11 0 31 5 29
-23 -3 -31 -16 -4 -25 -13 -25 -27 0 -11 5 -17 10 -14 14 9 13 -11 -2 -36 -11
-17 -10 -22 6 -35 19 -14 19 -14 -1 -14 -12 0 -25 5 -29 11 -4 8 -9 8 -17 0
-6 -6 -20 -11 -32 -11 -19 -1 -19 -1 -2 -11 10 -6 25 -8 33 -5 9 4 14 -1 14
-14 0 -11 0 -23 1 -27 0 -4 -17 -13 -38 -20 -21 -7 -27 -11 -13 -8 14 2 32 0
40 -6 13 -8 12 -12 -7 -28 -20 -17 -21 -20 -6 -26 15 -5 15 -7 3 -15 -12 -7
-11 -12 4 -29 15 -17 16 -21 4 -21 -8 0 -25 14 -37 31 -21 28 -25 30 -33 15
-7 -13 -5 -21 7 -30 16 -12 16 -13 1 -19 -9 -4 -16 -11 -16 -17 0 -6 5 -8 10
-5 6 3 10 3 10 0 0 -3 -13 -11 -29 -16 -27 -10 -41 -32 -41 -69 0 -9 6 -6 16
9 10 14 20 19 25 14 13 -13 0 -43 -18 -43 -12 0 -14 -7 -10 -29 5 -23 2 -30
-20 -40 -24 -11 -25 -15 -19 -61 6 -44 4 -50 -11 -50 -15 0 -16 -2 -3 -10 13
-9 13 -11 1 -19 -8 -5 -21 -7 -29 -4 -12 5 -11 1 2 -25 15 -29 15 -31 -4 -37
-11 -4 -20 -10 -20 -15 0 -5 -8 -7 -17 -4 -17 5 -17 5 0 -6 21 -14 22 -36 2
-44 -18 -7 -20 -32 -2 -40 6 -3 0 -3 -15 0 -17 4 -28 2 -28 -5 0 -6 7 -11 16
-11 20 0 13 -20 -12 -34 -10 -6 -22 -15 -26 -21 -5 -7 -8 -6 -8 0 0 7 -14 9
-34 7 -33 -4 -34 -5 -25 -35 7 -24 5 -33 -9 -43 -9 -7 -23 -14 -29 -14 -7 0
-13 -8 -13 -18 0 -10 -5 -23 -12 -30 -24 -24 0 -21 25 2 30 28 31 28 17 -8 -6
-16 -6 -27 0 -31 19 -12 10 -22 -14 -18 -24 5 -49 -18 -28 -25 23 -7 12 -27
-28 -52 -39 -24 -51 -40 -30 -40 6 0 10 -4 10 -10 0 -5 -14 -10 -32 -10 -29 0
-30 -1 -15 -18 23 -25 21 -35 -4 -29 -17 5 -20 2 -16 -14 3 -10 0 -22 -5 -26
-7 -3 -8 -1 -4 5 4 7 1 12 -8 12 -9 0 -16 -9 -16 -20 0 -11 -5 -20 -12 -20 -9
0 -9 -3 0 -12 16 -16 15 -28 -3 -28 -8 0 -19 -9 -25 -20 -6 -11 -15 -18 -20
-15 -5 3 -11 1 -15 -5 -3 -5 1 -10 9 -10 18 0 21 -16 6 -25 -6 -4 -8 -10 -5
-15 2 -4 -15 -13 -40 -19 -25 -6 -46 -17 -47 -24 0 -6 -2 -16 -2 -22 -1 -5 -5
-16 -10 -24 -5 -8 -3 -17 5 -22 11 -8 10 -12 -5 -24 -11 -8 -25 -15 -32 -15
-6 0 -17 -6 -24 -14 -6 -8 -17 -13 -24 -10 -7 3 -24 0 -39 -5 -30 -12 -52 -73
-41 -116 6 -24 4 -26 -28 -29 -24 -2 -41 -25 -29 -40 8 -9 2 -17 -27 -31 -40
-20 -45 -22 -67 -24 -22 -2 -18 -29 6 -41 25 -14 11 -36 -29 -45 -32 -7 -60
-30 -85 -67 -9 -16 -23 -28 -29 -28 -7 0 -31 -7 -54 -16 -34 -13 -40 -19 -37
-38 4 -18 10 -21 39 -18 25 3 35 0 41 -13 8 -22 -24 -48 -49 -41 -23 5 -23 1
2 -24 20 -20 17 -50 -5 -50 -7 0 -15 -6 -18 -12 -3 -10 -7 -10 -21 1 -14 12
-19 11 -36 -4 -12 -11 -17 -22 -11 -29 4 -6 11 -23 15 -37 7 -32 -8 -41 -44
-26 -25 10 -25 10 -2 14 14 3 22 11 22 25 0 16 -3 18 -14 9 -9 -8 -22 -8 -38
-2 -15 5 -30 6 -39 0 -11 -7 -11 -9 3 -9 23 0 34 -20 17 -31 -8 -5 -13 -24
-13 -49 1 -28 -3 -40 -12 -40 -8 0 -14 -9 -14 -20 0 -25 -28 -27 -38 -2 -8 20
-63 25 -55 5 3 -7 -7 -17 -22 -23 -36 -14 -45 -13 -45 6 0 9 -7 14 -17 12 -10
-2 -18 -10 -17 -19 1 -11 -8 -13 -37 -11 -33 4 -38 1 -41 -20 -2 -16 -9 -22
-23 -21 -97 11 -117 12 -97 5 35 -11 31 -25 -9 -35 -29 -7 -36 -12 -32 -27 4
-15 -1 -18 -27 -17 -37 2 -66 -27 -42 -42 10 -6 8 -10 -10 -16 -12 -4 -31 -6
-40 -5 -21 2 -24 -16 -4 -23 7 -3 16 -16 18 -29 3 -13 9 -32 13 -43 6 -14 -1
-11 -25 12 -38 37 -49 37 -25 -1 16 -24 16 -27 -1 -43 -17 -17 -18 -17 -11 1
11 29 -10 48 -37 34 -11 -7 -28 -12 -36 -13 -8 0 -16 -10 -18 -22 -4 -24 -21
-30 -38 -13 -11 11 -74 2 -74 -10 0 -17 -65 -30 -99 -20 -23 6 -39 6 -47 -1
-9 -7 -15 -5 -22 7 -14 26 -81 12 -109 -23 -12 -15 -19 -32 -15 -37 3 -6 -6
-3 -21 7 -34 22 -37 22 -37 -8 0 -22 -3 -25 -24 -19 -17 4 -27 0 -35 -13 -9
-16 -11 -16 -12 7 -1 14 -1 28 0 32 0 5 -4 8 -9 8 -6 0 -10 -14 -10 -31 0 -23
-4 -30 -14 -26 -32 12 -116 -33 -116 -62 0 -11 -3 -12 -11 -4 -14 14 -39 6
-39 -13 0 -16 -16 -19 -25 -4 -9 15 -27 1 -21 -16 3 -8 1 -14 -4 -14 -6 0 -10
5 -10 10 0 13 -33 13 -47 -1 -20 -20 -94 -31 -110 -17 -9 7 -30 13 -47 14 -47
2 -159 25 -173 36 -15 12 -56 19 -111 18 -29 -1 -53 6 -73 21 -24 17 -33 19
-39 9 -5 -9 -22 -10 -59 -5 -36 5 -51 3 -51 -5 0 -6 -8 -10 -17 -8 -10 1 -24
-1 -30 -5 -8 -5 -13 -4 -13 2 0 21 -18 11 -24 -14 -7 -27 -17 -30 -46 -15 -10
6 -21 6 -24 2 -3 -5 -20 -9 -38 -10 -18 0 -38 -8 -44 -17 -11 -15 -23 -14 -69
5 -11 5 -33 11 -48 15 -25 5 -27 8 -15 22 11 14 9 15 -20 11 -24 -3 -32 -1
-28 9 3 7 -6 25 -20 40 -13 15 -23 32 -20 39 3 7 -2 15 -10 18 -8 3 -14 12
-14 20 0 8 -23 27 -51 42 -35 20 -49 33 -46 44 5 18 -12 19 -91 5 -29 -5 -33
-4 -30 12 3 12 12 17 28 16 14 -1 19 1 13 3 -10 4 -10 11 -1 27 6 12 10 24 9
27 -1 2 2 6 8 8 10 3 15 -13 14 -45 0 -6 6 -14 13 -17 8 -3 13 -2 12 2 -3 17
15 42 31 42 9 0 23 6 29 12 10 10 14 8 19 -11 3 -13 9 -18 13 -12 8 13 40 4
40 -11 0 -17 101 -108 121 -108 10 0 21 -4 24 -10 8 -13 52 -13 57 1 2 7 12 7
33 -1 17 -6 32 -12 35 -12 3 0 15 -4 28 -9 13 -5 22 -5 22 1 0 6 9 10 21 10
14 0 24 10 32 30 6 17 17 30 24 30 6 0 15 9 18 20 3 11 12 20 20 20 7 0 16 7
19 16 5 14 9 14 22 3 13 -11 17 -10 26 4 7 14 18 16 53 12 50 -6 75 1 75 21 0
8 2 14 4 14 2 0 12 3 21 7 14 5 16 2 11 -15 -4 -12 -4 -26 -1 -32 9 -15 61 15
68 40 3 12 11 18 19 15 8 -3 21 1 28 10 7 8 19 15 26 15 8 0 14 9 14 20 0 11
4 20 9 20 5 0 12 11 15 25 4 16 13 25 26 25 25 0 36 -20 19 -32 -11 -8 -10 -8
4 -4 10 3 24 6 30 6 7 0 5 6 -4 13 -15 11 -15 17 -4 42 9 19 14 24 14 13 1
-22 21 -24 21 -3 0 8 5 15 10 15 6 0 10 -7 10 -16 0 -27 29 3 47 48 8 21 20
35 25 32 6 -4 8 -1 6 7 -7 19 9 49 27 49 7 0 23 16 35 35 12 19 26 35 31 35 4
0 15 13 24 30 9 16 21 30 27 30 13 0 37 30 38 48 0 10 -10 11 -37 6 -21 -4
-40 -10 -43 -13 -3 -3 -42 -7 -88 -9 -46 -2 -94 -7 -108 -12 -17 -7 -32 -6
-44 0 -26 14 -140 16 -148 3 -12 -17 -49 -33 -79 -33 -21 0 -24 -3 -14 -9 17
-11 -2 -21 -74 -39 -22 -6 -63 -18 -92 -26 -58 -18 -198 -22 -188 -6 3 6 -3
10 -14 10 -11 0 -36 11 -56 24 -20 14 -42 23 -49 20 -7 -3 -26 2 -42 11 -16 8
-35 15 -41 15 -7 0 -13 5 -13 10 0 6 6 10 13 11 6 0 -1 5 -17 11 -16 6 -41 22
-55 35 -59 54 -109 93 -120 93 -6 0 -11 9 -11 20 0 22 -32 42 -75 47 -16 2
-31 8 -33 13 -2 6 -16 10 -30 10 -15 0 -44 3 -65 6 -29 5 -35 9 -26 20 8 10 3
13 -23 12 -18 -1 -52 7 -76 16 -50 19 -172 95 -172 108 0 4 -3 7 -7 7 -26 -4
-43 3 -43 19 0 14 -62 92 -74 92 -1 0 -2 -14 -1 -30 1 -17 -2 -33 -7 -36 -4
-3 -8 -16 -8 -30 0 -14 -7 -27 -16 -31 -8 -3 -13 -12 -10 -19 3 -7 1 -16 -4
-19 -14 -9 -12 -21 6 -40 10 -10 13 -22 9 -33 -14 -30 -15 -132 -2 -132 8 0 8
-3 2 -8 -5 -4 -16 -15 -24 -24 -11 -15 -11 -21 0 -35 8 -9 14 -26 14 -37 0
-15 8 -23 30 -27 32 -7 25 -12 -12 -9 -17 1 -23 -4 -23 -20 0 -12 -4 -18 -10
-15 -5 3 -10 -3 -10 -14 0 -11 5 -23 11 -27 6 -3 9 -15 6 -25 -3 -11 -1 -16 4
-13 15 9 23 -27 10 -47 -7 -13 -8 -19 -1 -19 6 0 10 -7 8 -16 -2 -10 9 -24 27
-34 17 -9 31 -26 33 -37 4 -26 30 -37 48 -22 11 9 15 7 20 -7 3 -11 10 -27 15
-36 5 -11 5 -19 -1 -23 -6 -3 -10 -2 -10 4 0 5 -15 13 -32 16 -18 4 -41 14
-50 22 -15 13 -18 13 -26 -4 -6 -10 -8 -32 -4 -48 5 -28 4 -29 -12 -16 -10 8
-15 22 -13 32 3 12 0 16 -10 12 -11 -4 -14 -1 -11 13 2 10 10 18 16 16 7 -1
12 7 12 18 0 11 -7 20 -15 20 -7 0 -19 8 -24 18 -9 15 -10 15 -11 -5 0 -14 6
-23 15 -23 21 0 19 -9 -7 -29 -24 -20 -58 -17 -58 5 0 8 -4 14 -10 14 -5 0
-10 7 -10 15 0 8 -5 15 -11 15 -12 0 -8 40 6 73 5 12 3 17 -9 17 -9 0 -13 -6
-10 -13 8 -21 -18 -35 -53 -30 -29 5 -32 8 -27 29 5 20 2 24 -15 24 -24 0 -25
3 -9 29 9 15 8 22 -5 35 -8 9 -23 16 -31 16 -9 0 -16 7 -16 16 0 12 -7 15 -25
12 -14 -3 -25 -1 -25 4 0 6 -11 8 -24 4 -12 -3 -26 -2 -30 1 -4 4 -17 8 -29 8
-17 0 -23 7 -25 30 -4 38 -17 52 -34 37 -20 -16 -42 2 -35 28 4 15 -2 33 -16
52 -20 27 -23 28 -34 12 -7 -10 -16 -14 -20 -10 -4 4 -3 10 2 14 6 4 16 18 23
31 13 22 12 26 -17 48 -17 14 -31 33 -31 44 0 11 -7 19 -16 19 -8 0 -22 7 -31
15 -14 14 -13 15 13 10 25 -5 26 -4 8 4 -12 5 -25 14 -29 20 -3 6 -14 11 -25
11 -18 0 -36 28 -24 39 4 3 9 0 11 -6 7 -19 20 -16 26 7 3 12 0 20 -7 20 -7 0
-24 13 -38 29 -14 15 -34 35 -44 42 -22 16 -48 59 -36 59 13 0 12 40 -1 40 -7
0 -20 12 -30 25 -18 25 -18 25 5 34 13 5 29 16 36 24 18 21 -4 33 -24 13 -27
-28 -66 -18 -78 20 -4 14 -1 26 9 34 12 10 13 16 4 26 -6 8 -15 11 -21 8 -14
-9 -40 17 -33 33 6 17 -11 53 -26 53 -6 0 -8 -10 -4 -22 6 -21 4 -21 -19 5
-35 38 -33 47 9 40 31 -5 36 -3 45 21 15 41 12 44 -14 14 -25 -30 -60 -41 -35
-12 10 13 10 17 0 24 -10 6 -10 9 -1 15 20 12 -11 26 -45 19 -19 -3 -25 -2
-17 4 18 12 21 68 4 64 -7 -1 -12 5 -10 14 2 12 -7 20 -29 26 -44 11 -42 28 3
28 21 0 33 4 29 10 -3 6 -21 10 -40 10 -38 0 -55 16 -26 25 13 4 17 12 14 25
-4 14 0 20 11 20 10 0 14 5 11 10 -3 6 -17 10 -30 10 -13 0 -27 5 -30 10 -3 6
4 10 17 10 23 1 23 1 3 16 -13 11 -16 18 -8 21 14 5 -15 43 -33 43 -25 0 -74
36 -74 53 0 10 7 26 16 35 14 13 14 17 3 21 -8 2 -24 14 -35 27 -19 20 -20 23
-5 29 15 6 14 7 -2 16 -9 6 -21 8 -26 5 -5 -3 -12 2 -15 11 -5 11 1 23 15 34
12 9 19 21 15 27 -3 6 -1 12 4 14 16 5 23 98 9 114 -6 8 -25 14 -41 14 -22 0
-29 4 -25 14 9 23 -12 86 -29 86 -8 0 -24 8 -35 18 -19 19 -19 19 1 37 26 24
25 41 -2 48 -14 4 -26 0 -35 -11 -12 -15 -13 -14 -7 9 3 15 1 30 -5 33 -6 4
-11 15 -11 26 0 11 -10 20 -27 25 -27 6 -27 7 -8 21 12 9 21 11 23 4 2 -5 12
-10 23 -10 12 0 16 -5 13 -15 -4 -9 0 -15 10 -15 9 0 16 8 16 18 0 10 5 23 12
30 14 14 13 15 -37 34 -36 14 -41 20 -49 62 -5 25 -15 46 -22 46 -6 0 -15 11
-18 25 -4 15 -16 27 -31 31 -27 7 -34 24 -10 24 8 0 15 9 15 20 0 14 7 20 21
20 28 0 21 34 -9 38 -28 4 -28 29 0 59 l21 23 -23 26 c-16 16 -21 28 -14 32 6
4 13 15 17 25 3 9 16 17 27 17 15 0 20 5 18 18 -2 11 -12 16 -26 15 -15 -2
-20 2 -16 12 4 9 19 15 40 15 19 0 34 4 34 10 0 5 15 1 33 -9 18 -10 48 -22
66 -26 23 -5 31 -11 27 -22 -5 -12 -1 -14 14 -10 11 3 20 1 20 -3 0 -12 153
-165 165 -165 20 0 55 -26 55 -40 0 -7 10 -17 23 -21 12 -3 30 -15 40 -26 10
-10 31 -21 47 -25 16 -3 37 -14 46 -24 9 -11 29 -19 43 -19 26 0 68 -20 44
-20 -7 0 -13 -7 -13 -16 0 -8 4 -13 9 -10 5 4 11 2 13 -3 2 -5 21 -6 45 -2 29
6 40 5 37 -3 -5 -13 55 -15 74 -2 8 5 18 4 25 -3 8 -8 6 -11 -6 -11 -9 0 -17
-4 -17 -9 0 -5 36 -12 80 -16 64 -6 80 -10 80 -23 0 -13 3 -13 12 -4 10 10 10
15 -2 22 -23 14 -4 23 20 10 20 -11 41 -9 92 6 10 3 19 -2 23 -16 4 -11 11
-17 17 -14 6 4 8 -1 4 -13 -5 -17 -2 -20 24 -20 17 0 26 3 21 6 -6 4 -9 16 -8
28 1 17 7 21 32 21 16 -1 39 -7 50 -14 26 -18 35 -18 35 2 0 10 6 14 15 10 8
-3 15 -1 15 5 0 5 -10 14 -22 18 -21 8 -21 10 -5 16 11 5 25 1 36 -9 10 -9 23
-16 29 -16 7 0 12 -5 12 -12 0 -9 3 -9 12 0 7 7 26 12 44 12 28 0 31 3 26 22
-4 18 -2 20 16 16 12 -4 26 0 33 8 18 22 47 16 79 -16 l30 -30 21 21 c12 12
36 24 52 26 17 1 34 8 37 14 9 13 58 39 76 39 7 0 19 9 28 21 17 24 61 50 94
54 26 3 30 -20 7 -52 -11 -16 -13 -28 -5 -48 12 -31 46 -31 43 0 -2 11 1 26 6
34 13 20 33 3 25 -21 -4 -14 -2 -18 5 -14 6 4 11 14 11 22 0 8 5 14 10 14 6 0
10 5 10 10 0 6 -7 10 -16 10 -13 0 -13 2 -2 13 18 19 65 29 73 17 3 -5 -2 -11
-12 -11 -16 -1 -16 -2 -1 -6 10 -3 15 -11 12 -21 -5 -14 -3 -13 10 2 9 11 16
28 16 39 0 30 19 57 40 57 11 0 20 4 20 9 0 5 9 7 20 4 23 -6 26 8 8 37 -14
23 -12 25 27 34 24 5 26 4 13 -4 -22 -13 -24 -40 -3 -40 8 0 15 -7 15 -15 0
-8 4 -15 9 -15 5 0 14 7 21 15 7 8 21 15 31 15 24 0 25 27 2 33 -11 3 -8 5 9
6 17 1 34 10 44 26 9 14 23 25 31 25 15 0 15 1 -4 64 -5 15 -2 18 10 13 27
-10 48 3 42 24 -7 22 -3 23 43 10 25 -8 32 -7 32 4 0 8 -9 17 -20 20 -27 8
-25 24 3 29 12 3 36 8 52 11 17 3 44 6 60 7 17 0 22 2 13 5 -26 7 -22 22 6 29
16 4 23 11 19 20 -6 17 23 19 60 5 30 -12 41 -3 25 17 -10 12 -4 13 42 8 30
-4 69 -2 85 3 l30 9 -27 1 c-56 2 -71 19 -42 48 10 11 26 14 51 10 20 -4 49
-1 67 7 17 7 37 11 44 9 6 -3 12 0 12 6 0 19 28 12 44 -10z m-3404 -39 c0 -28
-34 -42 -93 -39 -29 2 -80 2 -114 1 -58 -2 -63 -4 -63 -24 0 -17 -3 -19 -9 -9
-5 8 -20 12 -38 9 -17 -2 -35 2 -42 10 -9 9 -23 11 -40 7 -50 -13 -123 -17
-133 -7 -6 6 -21 7 -39 2 -17 -5 -29 -5 -29 1 0 5 10 9 23 10 21 0 21 1 2 8
-19 8 36 15 200 27 28 2 100 8 160 12 197 15 215 15 215 -8z m-896 -38 c3 -5
-12 -18 -33 -30 -28 -16 -47 -20 -75 -15 -27 4 -41 2 -47 -8 -6 -9 -12 -10
-16 -4 -13 16 -196 13 -209 -4 -8 -10 -13 -11 -18 -3 -4 7 -16 12 -27 12 -11
0 -18 4 -15 9 4 5 0 12 -6 14 -7 3 3 6 22 7 19 1 44 4 55 6 90 20 359 32 369
16z m-1129 -65 c11 -3 39 -6 62 -6 61 -1 66 -15 53 -158 -6 -65 -15 -136 -20
-158 -5 -22 -12 -94 -15 -160 -3 -66 -10 -178 -15 -250 -5 -71 -14 -206 -20
-300 -6 -93 -19 -233 -28 -310 -9 -77 -15 -166 -14 -199 1 -32 -2 -75 -7 -95
-6 -20 -15 -88 -21 -151 -6 -63 -13 -128 -15 -145 -2 -16 -7 -73 -10 -125 -3
-52 -8 -114 -11 -138 l-5 -43 -112 5 c-62 3 -193 6 -292 6 -99 0 -228 3 -288
7 l-107 6 1 49 c1 27 5 51 9 53 4 2 7 30 8 62 3 74 11 116 26 126 8 5 7 9 -2
16 -11 7 -12 32 -3 139 7 72 9 148 5 170 -3 22 -1 55 5 73 5 19 15 120 21 224
6 105 15 228 20 275 6 47 15 137 20 200 6 63 17 183 25 265 9 83 20 230 25
329 10 200 16 219 71 223 19 1 81 5 139 8 58 4 107 8 109 10 5 6 363 -2 386
-8z m670 -41 c33 -3 125 -7 205 -10 170 -7 240 -15 258 -29 8 -6 12 -35 11
-81 0 -63 -4 -109 -23 -261 -3 -22 -10 -134 -16 -250 -15 -303 -30 -544 -41
-670 -5 -60 -14 -186 -19 -280 -5 -93 -12 -180 -15 -192 -3 -11 -12 -123 -20
-248 -8 -125 -18 -231 -21 -237 -4 -6 -27 -8 -58 -5 -205 22 -506 44 -678 48
l-68 2 0 30 c0 17 7 123 15 236 8 113 17 256 19 316 9 217 27 486 57 840 16
198 34 425 39 505 10 158 19 246 26 271 3 11 18 16 51 18 26 1 48 2 49 4 3 3
148 -2 229 -7z m6218 -83 c6 -99 14 -122 71 -208 46 -68 55 -77 111 -107 32
-17 58 -22 125 -22 98 -1 129 9 215 70 91 64 121 101 143 174 24 81 44 85 79
17 22 -41 28 -46 41 -35 13 11 15 10 9 -6 -6 -15 -4 -17 13 -13 11 3 18 1 15
-3 -3 -5 0 -10 5 -12 6 -2 11 -25 12 -51 1 -51 14 -60 43 -31 12 13 19 14 28
5 8 -8 7 -11 -6 -11 -12 0 -17 -8 -17 -30 0 -20 -5 -30 -15 -30 -8 0 -15 -3
-14 -7 3 -21 -15 -54 -27 -49 -20 8 -26 -10 -9 -24 21 -18 19 -29 -9 -36 -14
-3 -27 -12 -30 -20 -4 -11 -15 -13 -39 -9 -19 4 -53 1 -77 -5 -41 -11 -42 -13
-37 -44 5 -29 2 -33 -29 -42 -18 -6 -31 -7 -29 -4 5 9 -36 22 -44 15 -2 -3 1
-5 7 -5 7 0 12 -4 12 -10 0 -17 -77 -12 -84 5 -3 8 -11 15 -18 14 -10 0 -10
-2 0 -6 16 -6 16 -33 -1 -33 -24 0 -56 30 -50 47 5 12 3 14 -8 7 -23 -14 -111
-13 -105 2 3 8 -3 12 -17 11 -51 -2 -88 4 -82 13 3 6 -4 10 -17 10 -13 0 -30
6 -36 12 -10 10 -14 10 -21 0 -6 -10 -14 -10 -39 1 -18 7 -29 16 -25 20 3 4
-8 4 -25 1 -26 -5 -32 -3 -32 10 0 14 -7 16 -32 12 -26 -4 -37 -1 -49 16 -12
16 -29 21 -70 24 -46 2 -51 0 -36 -10 9 -7 17 -16 17 -20 0 -13 -32 -5 -81 21
-44 23 -49 28 -35 38 13 10 9 14 -27 26 -40 13 -51 19 -82 47 -17 15 -32 15
-37 0 -3 -9 -12 -9 -36 1 -24 10 -31 19 -30 37 2 26 36 42 58 29 6 -4 17 -1
25 5 17 15 36 5 28 -15 -5 -16 12 -21 21 -7 4 7 77 8 96 1 3 -1 13 -1 23 0 9
1 17 -4 17 -13 0 -16 12 -21 23 -10 10 11 -83 93 -99 87 -18 -7 -64 23 -64 43
0 11 -4 12 -19 4 -11 -5 -28 -10 -39 -10 -28 0 -84 30 -79 43 6 19 57 20 70 2
11 -14 19 -14 67 -4 30 7 63 21 73 32 17 20 18 20 32 1 14 -18 16 -18 26 -1 5
9 19 17 29 17 19 0 80 54 80 71 0 9 121 48 131 43 3 -2 9 -43 12 -91z m-5050
22 c61 -4 76 -1 81 12 5 12 9 13 21 3 9 -7 27 -10 45 -7 23 5 28 3 23 -8 -3
-10 1 -15 11 -15 22 0 30 -27 45 -145 7 -55 15 -107 18 -115 3 -8 7 -40 8 -70
3 -71 19 -174 44 -280 26 -105 27 -251 6 -570 -8 -124 -19 -297 -25 -385 -6
-88 -17 -271 -24 -407 -9 -162 -18 -253 -26 -262 -6 -9 -8 -21 -4 -27 12 -20
4 -223 -9 -231 -17 -11 -252 -85 -312 -98 -27 -6 -54 -15 -60 -19 -5 -4 -32
-13 -60 -20 -27 -7 -59 -14 -70 -17 -20 -6 -20 -6 0 9 15 12 17 18 7 29 -10
12 -7 17 14 27 17 7 24 17 20 26 -3 8 -1 15 3 15 5 0 12 28 16 63 4 34 11 70
16 80 8 14 5 17 -14 17 -25 0 -47 17 -47 37 0 7 11 13 24 13 13 0 26 7 30 15
7 18 49 20 76 3 15 -10 24 -10 39 -1 14 9 21 9 30 0 9 -9 16 -9 30 0 16 10 20
9 26 -5 5 -14 8 -12 18 8 14 28 43 34 39 8 -3 -21 16 -34 24 -15 3 8 13 13 23
10 23 -6 49 46 29 58 -7 4 -54 6 -105 5 -51 -2 -93 -1 -93 3 0 3 -22 4 -50 3
-32 -3 -50 0 -50 7 0 17 -50 13 -56 -4 -9 -22 -41 -18 -47 5 -5 20 -37 29 -37
11 0 -6 -11 -7 -27 -1 -16 5 -81 12 -145 15 l-118 7 0 49 c0 26 5 92 10 146
11 96 23 319 39 718 5 110 13 270 20 355 24 344 40 613 46 769 3 90 8 168 10
172 3 4 91 5 197 2 133 -4 189 -3 184 5 -8 13 17 23 25 10 3 -5 40 -11 82 -13z
m7007 -409 c11 -31 2 -69 -16 -62 -8 3 -14 1 -14 -4 0 -6 7 -10 15 -10 8 0 15
-4 15 -10 0 -5 -6 -10 -13 -10 -7 0 -18 -13 -24 -30 -12 -33 -3 -39 21 -15 8
9 17 11 21 6 3 -6 -3 -18 -14 -28 -23 -21 -33 -72 -18 -90 6 -9 6 -13 -2 -13
-6 0 -11 -6 -11 -14 0 -8 -7 -16 -15 -20 -8 -3 -15 -13 -15 -23 -1 -27 -53
-97 -75 -101 -11 -2 -26 -11 -33 -20 -11 -15 -14 -15 -30 1 -14 15 -15 19 -3
27 8 4 16 19 18 31 2 13 9 30 17 38 19 23 27 49 16 56 -15 9 -12 25 5 25 9 0
15 9 15 23 0 13 7 32 15 43 8 10 15 26 15 35 0 9 7 30 15 45 8 16 15 44 15 62
0 22 5 32 15 32 8 0 15 7 15 15 0 18 26 20 33 3 4 -8 6 -7 6 4 1 9 -5 19 -11
21 -10 4 -10 6 0 6 7 1 17 -10 22 -23z m-6483 -1140 c3 -31 12 -59 24 -72 14
-15 19 -35 19 -73 0 -59 18 -141 31 -141 5 0 9 -14 9 -30 0 -17 10 -44 21 -60
12 -15 23 -39 25 -52 6 -41 55 -172 71 -190 16 -18 14 -53 -4 -53 -6 0 -25
-12 -41 -27 -55 -49 -101 -66 -162 -59 l-55 6 1 35 c0 19 4 100 8 180 8 172
26 577 26 605 1 40 22 -14 27 -69z m-2988 -828 c6 -24 18 -100 25 -169 7 -69
19 -136 26 -149 l13 -24 14 28 c17 32 29 27 38 -15 4 -19 12 -29 20 -25 14 5
20 -12 30 -89 10 -78 15 -96 25 -90 6 3 10 24 10 46 0 47 19 129 30 129 10 0
20 -26 20 -51 0 -24 20 -25 21 -1 3 41 19 -73 25 -181 4 -64 10 -115 13 -111
3 3 6 9 7 12 0 4 3 14 6 22 11 28 28 161 23 170 -7 11 43 120 55 120 8 0 16
-86 23 -251 l4 -86 -33 -12 c-19 -7 -44 -10 -57 -7 -12 3 -16 3 -9 0 9 -4 4
-11 -15 -21 -137 -75 -176 -91 -258 -107 -152 -29 -337 -76 -403 -102 -78 -31
-97 -27 -55 12 30 28 31 32 47 184 33 313 80 682 93 739 6 23 6 24 21 5 10
-13 16 -15 19 -6 3 6 11 12 19 12 7 0 11 6 8 14 -3 8 -1 17 4 20 6 3 12 -1 16
-9 3 -8 13 -15 21 -15 9 0 14 -4 10 -9 -6 -11 25 -81 37 -81 4 0 8 8 8 19 0
33 54 121 75 121 7 0 18 -19 24 -42z m1586 -8 c6 -25 10 -65 9 -90 -1 -25 -2
-116 -3 -203 l-1 -158 -75 -34 c-41 -19 -78 -35 -83 -35 -4 0 -20 -7 -37 -16
-16 -8 -63 -29 -105 -45 -41 -17 -98 -43 -127 -59 -44 -25 -178 -58 -189 -47
-3 3 18 75 60 207 20 61 20 22 0 -91 -20 -118 -5 -139 26 -35 14 48 29 85 41
106 5 8 17 31 27 50 9 19 19 37 22 40 3 3 13 20 22 39 9 20 18 29 23 22 4 -7
15 -9 26 -6 15 5 19 1 19 -19 0 -40 18 -40 42 1 l23 38 5 -30 6 -30 17 26 c10
15 40 84 67 154 27 70 57 139 67 153 26 36 30 44 44 80 10 27 16 33 37 30 21
-2 28 -11 37 -48z m6990 -2 c14 -6 25 -15 25 -20 0 -4 5 -8 10 -8 6 0 10 6 10
14 0 9 8 12 25 8 14 -2 25 -8 25 -13 0 -5 7 -9 16 -9 10 0 14 5 10 16 -3 8 -2
12 4 9 6 -3 9 -25 9 -48 -2 -30 -3 -34 -6 -14 -5 34 -16 34 -43 0 l-21 -28 21
-17 c12 -10 26 -15 31 -12 5 3 9 -4 9 -15 0 -18 7 -21 43 -22 23 -1 33 -3 22
-6 -11 -3 -24 -9 -29 -14 -18 -16 -43 -9 -60 16 -15 23 -15 24 1 18 11 -4 14
-3 9 5 -4 7 -20 12 -37 12 -22 0 -29 -5 -29 -19 0 -11 6 -22 13 -24 9 -4 9 -6
-1 -6 -7 -1 -16 9 -21 22 -5 13 -16 29 -25 36 -9 7 -13 17 -10 22 8 13 24 11
22 -2 -2 -6 2 -13 8 -16 6 -2 11 9 12 27 1 29 -19 42 -33 20 -11 -17 -50 6
-52 31 -2 26 3 49 11 49 3 0 17 -5 31 -12z m-6435 -134 c0 -6 -3 -14 -7 -18
-4 -4 -9 -29 -11 -56 -2 -36 0 -50 9 -50 19 0 -22 -35 -49 -42 -19 -5 -22 -2
-22 20 -1 23 -2 25 -11 9 -5 -9 -7 -22 -4 -27 3 -6 0 -10 -7 -10 -7 0 -23 -3
-35 -6 -22 -6 -23 -3 -23 42 0 72 20 176 34 171 6 -2 11 -12 11 -23 0 -14 6
-18 25 -16 27 3 42 20 35 40 -3 8 -2 18 1 24 7 11 53 -39 54 -58z m4300 -944
c0 -5 -4 -10 -10 -10 -5 0 -10 -11 -10 -23 0 -13 -9 -32 -20 -42 -11 -10 -20
-26 -20 -36 0 -21 -102 -121 -136 -132 -13 -5 -24 -14 -24 -20 0 -8 -4 -7 -12
1 -17 17 -25 15 -31 -8 -3 -13 -14 -20 -31 -20 -15 0 -30 -8 -35 -19 -6 -10
-24 -24 -41 -29 -16 -6 -30 -16 -30 -21 0 -6 -9 -11 -20 -11 -12 0 -38 -18
-60 -40 -24 -24 -42 -36 -46 -29 -4 7 -11 2 -18 -12 -13 -27 -43 -41 -33 -15
4 9 2 16 -3 16 -6 0 -10 -5 -10 -10 0 -7 -8 -7 -22 1 -18 10 -24 8 -35 -6 -12
-17 -63 -28 -63 -14 0 3 -24 6 -52 6 -107 1 -116 3 -122 18 -7 20 -26 19 -26
-2 0 -13 -3 -14 -12 -5 -7 7 -22 12 -35 12 -29 0 -72 19 -100 44 -20 17 -26
18 -48 6 -21 -11 -27 -11 -43 3 -10 10 -24 17 -30 17 -7 0 -12 7 -12 15 0 8
-7 15 -15 15 -8 0 -15 -4 -15 -9 0 -14 -50 -20 -58 -6 -12 20 -55 40 -60 26
-7 -20 -31 -12 -53 18 -13 18 -27 27 -38 24 -10 -2 -23 3 -30 11 -15 18 -41
21 -41 5 0 -5 -4 -7 -10 -4 -5 3 -10 16 -10 28 0 12 -14 35 -30 51 -49 45 -64
82 -49 118 8 20 14 25 20 17 5 -9 11 -5 20 13 13 29 35 43 44 28 4 -6 14 -10
25 -10 10 0 21 -7 24 -16 3 -8 11 -12 17 -8 8 5 10 -1 7 -20 -5 -25 -4 -25 12
-11 9 8 29 15 43 15 22 0 27 -5 27 -24 0 -14 5 -28 10 -31 6 -3 10 1 10 9 0
22 17 28 33 11 9 -9 23 -12 33 -8 10 3 15 2 12 -3 -3 -5 7 -9 22 -10 47 -2 60
-11 60 -44 0 -35 17 -41 22 -7 4 30 24 18 20 -13 l-2 -25 21 25 c20 24 21 25
16 3 -7 -31 4 -29 39 7 32 33 44 37 44 16 0 -26 21 -29 45 -6 20 19 27 21 40
10 12 -10 16 -9 21 3 4 10 16 14 39 13 23 -2 36 2 40 12 3 9 9 11 18 5 18 -14
87 -15 104 -2 11 10 16 10 23 -1 7 -11 11 -10 24 3 9 9 23 14 31 11 8 -4 30 3
49 14 19 11 43 18 54 15 11 -3 36 3 55 12 19 9 41 15 49 14 7 -1 20 1 28 4 16
7 154 25 228 29 29 2 41 7 37 16 -6 17 20 15 34 -2 17 -20 50 -9 44 15 -4 16
0 19 26 19 17 0 31 -4 31 -10z"/>
<path d="M5251 9447 c-17 -18 -33 -22 -81 -22 -34 0 -64 -5 -71 -12 -20 -20
-53 -15 -64 9 -15 32 -43 47 -55 28 -5 -9 -5 -19 2 -27 15 -18 2 -29 -16 -14
-10 8 -16 9 -21 1 -10 -15 4 -30 28 -30 12 0 30 -7 40 -14 11 -8 36 -12 64
-10 34 2 43 0 33 -7 -12 -8 -12 -12 -2 -16 6 -2 12 -10 12 -16 0 -22 38 -39
60 -27 27 14 25 19 -9 31 -16 6 -31 19 -34 30 -4 16 0 19 30 19 27 0 34 4 30
14 -4 10 -1 13 9 9 8 -3 21 0 29 7 12 10 18 10 30 0 20 -17 1 -54 -25 -47 -30
8 -40 -6 -33 -46 4 -27 11 -37 24 -37 10 0 20 -4 24 -9 10 -17 -10 -18 -45 -3
-19 8 -47 14 -62 13 -19 -2 -35 6 -51 23 -27 29 -60 36 -50 10 5 -13 2 -15
-17 -9 -14 5 -25 3 -30 -6 -10 -15 -120 -26 -120 -11 0 13 -29 24 -42 16 -5
-3 0 -16 13 -30 18 -19 33 -24 73 -24 64 0 74 -7 80 -53 6 -42 4 -43 -29 -21
-18 11 -35 14 -65 9 -55 -9 -51 -26 6 -18 40 5 46 4 51 -16 3 -11 12 -21 19
-21 8 0 14 -4 14 -10 0 -5 6 -10 14 -10 7 0 16 -9 19 -21 3 -13 10 -18 17 -14
8 5 5 14 -9 29 -26 27 -18 38 17 25 14 -5 32 -7 40 -4 9 3 19 0 24 -7 6 -10
10 -10 17 1 7 11 11 10 22 -6 10 -17 18 -19 42 -12 16 4 35 13 43 19 7 7 19 8
26 4 7 -5 16 -9 20 -9 20 0 17 -15 -3 -15 -13 0 -39 -9 -58 -21 -30 -18 -35
-19 -50 -5 -10 9 -25 16 -34 16 -22 0 -67 -21 -67 -32 0 -13 -66 -4 -85 12
-21 17 -29 7 -14 -17 16 -26 86 -45 110 -30 27 17 94 -3 94 -28 0 -17 -7 -20
-38 -20 -21 0 -43 6 -49 13 -21 25 -27 11 -10 -23 20 -41 59 -48 80 -14 11 17
20 20 45 14 18 -3 50 -9 72 -12 28 -4 49 -15 71 -39 34 -37 28 -55 -15 -48
-13 3 -29 0 -35 -5 -12 -10 -56 -4 -56 8 0 11 15 28 30 34 8 3 -3 6 -25 7 -22
1 -57 3 -77 6 -42 5 -42 5 -29 -29 7 -17 20 -26 45 -31 24 -5 33 -11 30 -20
-3 -8 -1 -17 5 -20 6 -4 8 -13 4 -21 -4 -11 2 -15 22 -15 27 0 28 1 10 20 -16
17 -16 20 -2 26 9 3 21 2 28 -2 7 -4 25 -8 40 -9 20 -2 26 1 22 11 -5 14 29
20 85 15 12 -1 22 2 22 7 0 6 11 17 25 26 18 12 23 13 19 3 -3 -8 6 -22 21
-31 14 -9 23 -21 21 -25 -3 -5 15 -29 39 -54 25 -25 45 -48 45 -51 0 -16 -56
-4 -68 14 -7 11 -21 20 -31 20 -22 0 -36 27 -21 45 13 15 -7 35 -36 35 -37 0
-40 -21 -7 -49 33 -29 33 -51 0 -51 -29 0 -51 15 -43 28 8 13 -30 36 -44 27
-6 -3 6 -23 26 -43 28 -29 33 -38 19 -40 -9 -2 -31 3 -50 12 -41 20 -45 20
-45 2 0 -15 49 -36 84 -36 12 0 34 -7 50 -15 32 -17 56 -19 56 -6 0 5 -14 11
-31 15 -22 4 -30 11 -27 23 5 23 64 22 82 -2 7 -10 22 -15 40 -12 16 2 58 -7
95 -19 71 -25 236 -35 198 -13 -11 6 -32 9 -48 5 -15 -3 -30 -2 -33 3 -3 4
-22 8 -42 9 -44 2 -64 16 -46 34 13 13 31 16 105 19 27 2 46 7 44 13 -4 11
-93 37 -101 29 -8 -8 -96 9 -96 19 0 6 17 8 45 4 33 -5 51 -3 67 8 12 9 19 17
15 17 -4 1 -10 2 -14 3 -5 1 -23 7 -40 15 -29 12 -36 11 -59 -4 -32 -21 -54
-13 -54 18 0 33 23 51 52 41 13 -4 44 -6 69 -5 40 2 49 -1 65 -23 18 -24 22
-25 57 -15 20 5 42 7 48 3 7 -4 10 -1 7 7 -4 9 -18 13 -43 12 -28 -2 -42 2
-51 16 -15 20 -71 33 -80 19 -11 -17 -68 -4 -79 17 -9 15 -19 19 -45 17 -36
-4 -90 9 -150 36 -19 9 -39 16 -44 17 -13 0 -31 33 -23 41 3 4 39 2 79 -5 40
-6 89 -11 108 -12 19 -1 45 -6 57 -11 17 -9 26 -6 49 15 l28 26 -37 -6 c-26
-4 -37 -2 -37 7 0 11 -25 10 -91 -6 -17 -4 -30 0 -38 10 -8 9 -28 16 -47 16
-18 0 -36 5 -39 10 -3 6 -17 10 -29 10 -13 0 -29 6 -35 14 -10 12 -7 15 16 19
24 4 71 3 111 -1 6 -1 12 -10 12 -19 0 -11 3 -14 8 -7 7 11 109 27 170 26 17
0 32 3 32 7 0 14 -25 31 -47 31 -38 0 -75 22 -70 42 3 11 0 18 -8 18 -7 0 -15
4 -17 9 -1 4 -13 12 -25 15 -18 6 -23 3 -23 -10 0 -13 -6 -15 -30 -10 -25 5
-30 2 -30 -14 0 -21 -24 -27 -36 -9 -3 6 -17 8 -31 4 -32 -8 -63 2 -63 21 0 8
-7 14 -15 14 -8 0 -15 4 -15 9 0 5 -3 16 -6 25 -5 12 1 15 30 14 19 -1 37 -7
40 -15 3 -7 17 -13 31 -13 15 0 35 -5 46 -10 20 -11 28 3 9 15 -6 4 -9 14 -8
23 2 13 -8 18 -48 23 -29 4 -57 10 -63 13 -5 4 -19 1 -30 -6 -17 -11 -23 -10
-37 4 -15 14 -15 20 -4 33 7 9 20 13 27 10 20 -7 64 5 57 16 -3 5 -16 9 -28 9
-34 0 -52 25 -35 48 8 9 18 20 22 23 4 3 -3 10 -16 16 -20 10 -28 8 -46 -10z
m75 -406 c-4 -5 7 -12 23 -16 21 -4 31 -14 37 -36 8 -27 18 -34 92 -59 101
-35 128 -52 109 -68 -10 -9 -23 -7 -53 9 -28 15 -50 19 -81 15 -30 -4 -43 -2
-47 9 -3 8 -11 15 -19 15 -12 0 -44 66 -39 83 3 11 -23 8 -36 -5 -9 -9 -21 -7
-52 7 -50 23 -47 38 11 46 24 3 48 7 52 7 5 1 6 -2 3 -7z"/>
<path d="M5325 4850 c-3 -5 -1 -11 4 -15 6 -3 8 -12 5 -19 -3 -7 2 -20 10 -29
24 -23 21 -40 -4 -27 -21 12 -44 5 -35 -10 3 -5 -5 -14 -17 -21 -13 -7 -26
-17 -30 -22 -4 -7 -11 -7 -21 1 -11 10 -17 9 -26 -2 -10 -12 -8 -17 7 -25 11
-6 22 -20 25 -32 5 -20 3 -21 -29 -16 -27 5 -34 2 -34 -10 0 -9 -7 -21 -16
-27 -12 -10 -13 -17 -4 -41 6 -16 9 -38 6 -50 -6 -24 2 -39 27 -48 10 -4 15
-12 12 -17 -4 -6 1 -23 10 -37 16 -24 16 -27 1 -35 -23 -13 -46 -62 -37 -77 6
-8 17 -11 31 -6 19 6 21 5 11 -13 -6 -12 -16 -24 -21 -27 -5 -3 2 -17 18 -30
25 -21 28 -22 45 -8 9 9 17 23 17 31 0 8 30 59 68 114 37 55 73 109 79 121 7
12 13 18 13 12 1 -5 5 -1 9 10 5 11 22 27 37 35 16 8 31 17 34 20 15 15 60 31
95 33 36 3 40 5 43 33 4 38 -14 87 -29 79 -6 -4 -4 7 5 23 9 17 16 36 16 42 0
18 -17 11 -23 -10 -10 -37 -30 -23 -24 18 3 20 3 29 1 20 -7 -23 -82 -26 -90
-3 -4 8 -12 15 -19 15 -7 0 -16 7 -19 15 -4 12 -14 14 -43 9 -36 -6 -37 -5
-18 10 11 8 18 16 15 16 -45 7 -100 7 -105 0z"/>
<path d="M7355 4361 c-3 -6 -15 -11 -26 -11 -10 0 -19 -7 -19 -15 0 -8 5 -15
11 -15 5 0 7 -5 4 -11 -4 -6 2 -13 14 -16 12 -3 21 -12 21 -19 0 -8 5 -14 10
-14 19 0 10 -22 -11 -27 -12 -4 -18 -11 -15 -20 3 -8 6 -17 6 -19 0 -3 5 -2
11 2 8 4 9 0 4 -15 -3 -12 -2 -21 4 -21 24 0 38 -58 34 -139 -5 -88 1 -126 17
-102 4 8 24 15 44 15 19 1 38 5 41 8 4 4 13 4 20 2 7 -3 16 -1 20 5 3 6 -1 14
-9 17 -30 11 -18 31 17 27 27 -3 29 -2 12 7 -18 9 -18 10 5 8 41 -4 54 11 29
31 -22 18 -28 49 -16 94 6 21 4 27 -8 27 -8 0 -15 5 -15 10 0 6 -9 10 -20 10
-11 0 -20 5 -20 11 0 7 10 9 25 5 31 -8 33 6 3 19 -13 6 -25 21 -26 35 -2 13
-13 31 -24 38 -10 8 -23 24 -28 37 -6 15 -20 25 -45 29 -20 4 -42 9 -50 12 -7
3 -16 1 -20 -5z"/>
<path d="M1170 5506 c-9 -12 -8 -21 4 -43 8 -15 23 -44 32 -63 9 -19 27 -48
40 -63 22 -26 24 -35 20 -115 l-5 -87 10 95 c8 80 14 98 33 115 13 11 31 35
40 53 9 17 21 32 26 32 6 0 10 13 10 29 0 23 -7 32 -34 45 -44 21 -159 22
-176 2z"/>
<path d="M1235 4825 c-4 -30 -18 -97 -30 -147 -13 -51 -21 -98 -18 -105 3 -6
-9 -38 -26 -70 -35 -67 -51 -163 -29 -180 19 -16 79 -22 110 -11 25 9 26 13
27 70 0 45 -6 73 -24 108 -26 51 -26 40 1 323 8 80 -2 90 -11 12z"/>
<path d="M5670 15615 c0 -8 -6 -15 -13 -15 -7 0 -23 -14 -35 -30 -18 -24 -20
-34 -12 -50 6 -11 15 -20 19 -20 5 0 8 -8 7 -17 0 -10 6 -18 14 -18 8 0 14 8
14 18 -2 20 -3 20 30 7 23 -8 24 -12 14 -40 -7 -22 -7 -35 0 -42 7 -7 13 1 17
28 10 58 25 82 54 87 l26 4 -27 2 c-21 1 -25 5 -21 21 4 14 0 20 -11 20 -12 0
-14 7 -9 30 5 29 4 30 -31 30 -25 0 -36 -4 -36 -15z"/>
<path d="M0 5696 l0 -176 40 0 c31 0 40 4 40 17 0 14 3 13 20 -5 25 -26 25
-27 27 -4 1 19 29 142 42 184 6 17 5 30 -2 37 -8 8 -7 11 4 11 23 0 23 63 1
83 -10 9 -49 18 -94 22 l-78 7 0 -176z"/>
</g>
</svg>
